<?xml version="1.0" encoding="utf-8"?>
<!-- Generator: Adobe Illustrator 18.0.0, SVG Export Plug-In . SVG Version: 6.00 Build 0)  -->
<!DOCTYPE svg PUBLIC "-//W3C//DTD SVG 1.1//EN" "http://www.w3.org/Graphics/SVG/1.1/DTD/svg11.dtd">
<svg version="1.1" id="Layer_1" xmlns="http://www.w3.org/2000/svg" xmlns:xlink="http://www.w3.org/1999/xlink" x="0px" y="0px"
	 viewBox="0 0 318.3 70.1" enable-background="new 0 0 318.3 70.1" xml:space="preserve">
<g>
	<rect x="245" y="64.5" fill="#FFFFFF" width="69" height="1"/>
	<rect y="64.5" fill="#FFFFFF" width="73" height="1"/>
	<g>
		<path fill="#FFFFFF" d="M31.6,50.4V1.2h20.5V8H41.6v13.4h7.5v7h-7.5v15.2h10.6v6.8H31.6z"/>
		<path fill="#FFFFFF" d="M9.2,0.5H0v25h0.3c0,0,0.7-2.9,1.9-4.3c1.2-1.4,9.9-7.7,10.2-10.3c0.3-2.6,3.7-2.3,2.8,2
			c-0.9,4.3-3.6,4.6-3.4,8.1s6.4,1.5,7.6,1.4c1.3-0.1,3,0.5,3,2.5s-1.7,2.5-1.7,2.5s0.9,0.7,0.9,2.4S20.6,32,20.6,32
			s0.6,0.7,0.6,1.9c0,1.2-1.1,2.7-2.1,2.7c0,0,0.2,2.9-1.9,3.4c-2,0.4-5.9,1.7-10.9,0.4C2.2,39.4,0,41.4,0,42.1v7.4h9.1
			c14.2,0,16.9-4.7,16.9-16.2V17.1C26,5.9,22.4,0.5,9.2,0.5z"/>
		<g>
			<path fill="#FFFFFF" d="M54.6,50.4L65.3,1.2h8.8l10.6,49.3h-9.8l-2-10.5h-6.4l-1.9,10.5H54.6z M67.1,33.8h5.1l-2.5-18.3
				L67.1,33.8z"/>
			<path fill="#FFFFFF" d="M89.2,50.4V1.2h10v42.4h9.8v6.8H89.2z"/>
			<g>
				<path fill="#FFFFFF" d="M231.5,50.4V1.2h10.3c13.2,0,16.3,4.8,16.3,16v16.1c0,11.5-2.3,17.2-16.4,17.2H231.5z M241.5,43.4h0.2
					c5.1,0,6.5-0.3,6.5-4.7V12.2c0-3.4-2.1-4-6.3-4h-0.4V43.4z"/>
				<path fill="#FFFFFF" d="M261.2,50.4l10.6-49.3h8.8l10.6,49.3h-9.8l-2-10.5H273L271,50.4H261.2z M273.6,33.8h5.1l-2.5-18.3
					L273.6,33.8z"/>
				<path fill="#FFFFFF" d="M299.4,50.4V34.1l-9.2-33h9.4l4.6,21.6c1.7-7.1,3.4-14.5,5.1-21.6h9.1l-9.3,33v16.3H299.4z"/>
			</g>
			<g>
				<path fill="#FFFFFF" d="M151.3,29.6v-7.5c0-4.4,1.5-7.9,6.5-7.9c4.9,0,6.5,3.5,6.5,7.9v7.4c0,4.3-1.6,7.8-6.5,7.8
					C152.9,37.3,151.3,33.9,151.3,29.6z M159.8,30.6V21c0-1.4-0.3-3.3-2-3.3c-1.7,0-2,1.9-2,3.3v9.6c0,1.4,0.3,3.3,2,3.3
					C159.6,33.9,159.8,32,159.8,30.6z"/>
				<path fill="#FFFFFF" d="M167.2,36.9V14.7h9.3v3.1h-4.8v6h3.4V27h-3.4v9.9H167.2z"/>
				<path fill="#FFFFFF" d="M184.6,36.9V18h-3.3v-3.4h10.9V18h-3.2v18.9H184.6z"/>
				<path fill="#FFFFFF" d="M194.4,36.9V14.7h4.5v9.1h3.2v-9.1h4.5v22.2h-4.5V27h-3.2v9.9H194.4z"/>
				<path fill="#FFFFFF" d="M209.7,36.9V14.7h9.3v3.1h-4.8v6h3.4V27h-3.4v6.8h4.8v3.1H209.7z"/>
			</g>
			<path fill="#FFFFFF" d="M112.3,36.2l10.1-1.9c0,4.3,0.4,9.4,3.8,9.4c2.4,0,3-1.7,3-3.8c0-4.1-3-7.8-5.8-10.3l-3.1-2.6
				c-3.9-3.3-7.9-6.9-7.9-14c0-8.1,5.6-13,13.9-13c7,0,12.6,5.7,12.6,12.7c0,0.2,0,0.4,0,1.2l-10.3,1.4c0-0.6,0.1-1.2,0.1-2
				c0-2.3-0.5-5.7-3.1-5.7c-2.4,0-3.3,2.2-3.3,4.3c0,3.5,1.9,5.7,4.2,7.7c1.3,1.1,2.5,2.1,3.6,3.1c5.1,4.5,8.9,9.1,8.9,16.7
				c0,7.1-5.8,11.8-12.7,11.8C116.7,51.3,112.7,43.9,112.3,36.2z"/>
		</g>
	</g>
	<g>
		<path fill="#FFFFFF" d="M84.8,65.2c0,1.6-0.6,2.5-1.9,2.5s-1.9-0.8-1.9-2.5c0-0.9,0.2-1.5,0.6-1.9h-1.2c-0.7,0-1.2,0.1-1.4,0.3
			c-0.3,0.2-0.5,0.7-0.5,1.4v5l-0.5,0.2v-5.2c0-0.8,0.2-1.4,0.6-1.8c0.3-0.3,0.9-0.5,1.6-0.5h2.7C84.1,62.7,84.8,63.5,84.8,65.2z
			 M84.2,65.2c0-1.3-0.5-2-1.4-2c-0.9,0-1.4,0.7-1.4,2c0,1.3,0.5,2,1.4,2C83.8,67.2,84.2,66.5,84.2,65.2z"/>
		<path fill="#FFFFFF" d="M91,67.9h-1.7c-0.1,0.6-0.3,1.1-0.6,1.5c-0.4,0.4-0.9,0.6-1.5,0.6c-0.3,0-0.7-0.1-1-0.2L86,69.3
			c0.3,0.2,0.7,0.3,1.2,0.3c0.5,0,0.9-0.2,1.1-0.5c0.3-0.3,0.4-0.7,0.4-1.2h-1.2c-0.6,0-1.1-0.2-1.5-0.7c-0.3-0.4-0.5-1-0.5-1.6
			c0-0.7,0.1-1.3,0.4-1.8c0.3-0.5,0.8-0.8,1.5-0.8c1.2,0,1.8,0.8,1.8,2.5c0,0.7,0,1.3,0,1.9H91V67.9z M88.9,65.6
			c0-1.4-0.4-2.1-1.3-2.1c-1,0-1.4,0.7-1.4,2.1c0,0.5,0.1,1,0.4,1.3c0.3,0.4,0.6,0.6,1.1,0.6h1.3l0-1.1C88.9,66,88.9,65.7,88.9,65.6
			z"/>
		<path fill="#FFFFFF" d="M95.1,67.9h-0.6c-0.7,0-1.3-0.3-1.6-0.8c-0.3,0.6-0.9,0.8-1.6,0.8h-0.6v-0.5h0.5c0.9,0,1.4-0.5,1.4-1.5v-3
			l0.5-0.2V66c0,1,0.5,1.5,1.4,1.5h0.5V67.9z M92.6,69.7c0,0.3-0.1,0.4-0.4,0.4c-0.2,0-0.4-0.1-0.4-0.4c0-0.2,0.1-0.3,0.4-0.3
			C92.5,69.4,92.6,69.5,92.6,69.7z M93.9,69.7c0,0.3-0.1,0.4-0.4,0.4c-0.2,0-0.4-0.1-0.4-0.4c0-0.2,0.1-0.3,0.4-0.3
			C93.8,69.4,93.9,69.5,93.9,69.7z"/>
		<path fill="#FFFFFF" d="M97.1,66c0,0.6-0.2,1-0.5,1.4c-0.3,0.4-0.8,0.5-1.4,0.5h-0.8v-0.5h0.7c0.9,0,1.4-0.5,1.4-1.5v-5.2l0.5-0.2
			V66z"/>
		<path fill="#FFFFFF" d="M98.8,67.9h-0.5v-7.2l0.5-0.2V67.9z"/>
		<path fill="#FFFFFF" d="M107.5,67.9c0,0.8-0.2,1.3-0.7,1.7c-0.4,0.4-1.2,0.5-2.1,0.5c-1.1,0-1.8-0.3-2.3-0.9
			c-0.4-0.5-0.6-1.3-0.7-2.4c0-0.2,0-0.5,0-0.8l0.5-0.2v0.8c0,1,0.2,1.8,0.6,2.3c0.4,0.5,1,0.7,1.9,0.7c0.7,0,1.3-0.1,1.6-0.3
			c0.4-0.2,0.7-0.7,0.7-1.4V64l0.5-0.2v2.1c0.1-0.4,0.3-0.8,0.6-1.2c0.7-1.1,1.6-1.7,2.8-1.8c1,0,1.8,0.4,2.3,1.3
			c0.3,0.6,0.5,1.3,0.5,2.3c0,0.2,0,0.5,0,0.8l0,0.6H107.5z M113.1,67.4c0-0.3,0.1-0.6,0.1-0.8c0-0.8-0.2-1.5-0.5-2.1
			c-0.4-0.6-1-1-1.7-1c-1,0-1.8,0.5-2.5,1.5c-0.5,0.7-0.8,1.4-0.9,2v0.4H113.1z M111.3,60.9c0,0.3-0.1,0.4-0.3,0.4
			c-0.3,0-0.4-0.1-0.4-0.4c0-0.2,0.1-0.4,0.4-0.4C111.2,60.5,111.3,60.6,111.3,60.9z"/>
		<path fill="#FFFFFF" d="M119.2,67.9h-1.6c-0.1,0.7-0.3,1.2-0.6,1.6c-0.4,0.4-0.9,0.6-1.6,0.6c-0.4,0-0.7-0.1-1-0.2l-0.2-0.5
			c0.4,0.2,0.8,0.3,1.3,0.3c0.6,0,1-0.2,1.3-0.7c0.3-0.4,0.4-0.9,0.4-1.4v-4.7l0.5-0.2v4.7h1.6V67.9z"/>
		<path fill="#FFFFFF" d="M125.2,67.9h-6.4v-0.5h1.6v-2.5c0-0.6,0.2-1.2,0.5-1.6c0.4-0.4,0.9-0.6,1.5-0.6c0.5,0,0.9,0.2,1.2,0.5
			l-0.4,0.4c-0.2-0.3-0.5-0.4-1-0.4c-0.4,0-0.7,0.1-1,0.4c-0.2,0.3-0.4,0.7-0.4,1.1v2.7h4.2V67.9z"/>
		<path fill="#FFFFFF" d="M127.5,66c0,0.6-0.2,1-0.5,1.4c-0.3,0.4-0.8,0.5-1.4,0.5h-0.8v-0.5h0.7c1,0,1.4-0.5,1.4-1.5v-3l0.5-0.2V66
			z M126.8,69.7c0,0.3-0.1,0.4-0.4,0.4c-0.2,0-0.4-0.1-0.4-0.4c0-0.2,0.1-0.3,0.4-0.3C126.7,69.4,126.8,69.5,126.8,69.7z"/>
		<path fill="#FFFFFF" d="M136.1,67.9c0,0.8-0.2,1.3-0.7,1.7c-0.4,0.4-1.2,0.5-2.1,0.5c-1.1,0-1.8-0.3-2.3-0.9
			c-0.4-0.5-0.6-1.3-0.7-2.4c0-0.2,0-0.5,0-0.8l0.5-0.2v0.8c0,1,0.2,1.8,0.6,2.3c0.4,0.5,1,0.7,1.9,0.7c0.7,0,1.3-0.1,1.6-0.3
			c0.4-0.2,0.7-0.7,0.7-1.4V64l0.5-0.2v2.1c0.1-0.4,0.3-0.8,0.6-1.2c0.7-1.1,1.6-1.7,2.8-1.8c1,0,1.8,0.4,2.3,1.3
			c0.3,0.6,0.5,1.3,0.5,2.3c0,0.2,0,0.5,0,0.8l0,0.6H136.1z M141.7,67.4c0-0.3,0.1-0.6,0.1-0.8c0-0.8-0.2-1.5-0.5-2.1
			c-0.4-0.6-1-1-1.7-1c-1,0-1.8,0.5-2.5,1.5c-0.5,0.7-0.8,1.4-0.9,2v0.4H141.7z"/>
		<path fill="#FFFFFF" d="M146.1,67.9h-1.2c-0.8,0-1.2-0.4-1.2-1.3v-5.9l0.5-0.2v6.1c0,0.6,0.3,0.9,0.8,0.9h1.1V67.9z"/>
		<path fill="#FFFFFF" d="M153.4,67.9h-7.7v-0.5h5.4v-0.9c0-1-0.1-1.8-0.3-2.2c-0.3-0.7-0.9-1.1-1.8-1.1c-0.6,0-1.2,0.3-1.8,0.8
			l-0.4-0.4c0.7-0.6,1.4-1,2.1-1c1.1,0,1.8,0.4,2.2,1.2c0.3,0.6,0.4,1.5,0.4,2.6v0.9h1.8V67.9z M149.5,60.9c0,0.3-0.1,0.4-0.4,0.4
			c-0.2,0-0.4-0.1-0.4-0.4c0-0.2,0.1-0.4,0.4-0.4C149.4,60.5,149.5,60.6,149.5,60.9z"/>
		<path fill="#FFFFFF" d="M155.6,66c0,0.6-0.2,1-0.5,1.4c-0.3,0.4-0.8,0.5-1.4,0.5h-0.8v-0.5h0.7c0.9,0,1.4-0.5,1.4-1.5v-5.2
			l0.5-0.2V66z"/>
		<path fill="#FFFFFF" d="M157.2,67.9h-0.5v-7.2l0.5-0.2V67.9z"/>
		<path fill="#FFFFFF" d="M169,67.9h-0.7c-0.8,0-1.4-0.4-1.7-1.1c-0.3,0.6-0.8,0.8-1.6,0.8c-1.3,0-1.9-0.8-1.9-2.5
			c0-0.9,0.2-1.5,0.6-1.9h-1.2c-0.7,0-1.2,0.1-1.4,0.3c-0.3,0.2-0.5,0.7-0.5,1.4v5l-0.5,0.2v-5.2c0-0.8,0.2-1.4,0.6-1.8
			c0.3-0.3,0.9-0.4,1.6-0.4h2.7c1.3,0,1.9,0.8,1.9,2.5c0,0.8,0,1.3,0.1,1.5c0.2,0.5,0.6,0.7,1.3,0.7h0.6V67.9z M166.4,65.2
			c0-1.3-0.5-2-1.4-2c-0.9,0-1.4,0.7-1.4,2c0,1.3,0.5,2,1.4,2C166,67.2,166.4,66.5,166.4,65.2z"/>
		<path fill="#FFFFFF" d="M179.1,67.9h-10.5v-0.5h1.7V64l0.5-0.2v3.6h2.8v-4l0.5-0.2v4.1h2.9v-4.5l0.5-0.2v4.7h1.5V67.9z"/>
		<path fill="#FFFFFF" d="M184.4,67.9h-1.4c-0.3,0-0.6-0.1-1-0.2c-0.3,0.1-0.6,0.2-1,0.2h-2.1v-0.5c1.5,0,2.3,0,2.5-0.1
			c-1.2-0.7-1.8-1.7-1.7-2.9c0-0.5,0.2-0.9,0.6-1.2c0.4-0.3,0.9-0.5,1.5-0.5c0.7,0,1.2,0.3,1.6,0.7c0.3,0.4,0.5,0.9,0.5,1.5
			c0,0.5-0.1,0.9-0.3,1.4c-0.2,0.5-0.5,0.8-0.9,1c0.1,0.1,0.7,0.1,1.8,0.1V67.9z M182,67.2c0.4-0.1,0.7-0.4,1-0.8
			c0.2-0.4,0.4-0.9,0.4-1.3c0-0.5-0.1-0.9-0.4-1.2c-0.3-0.4-0.7-0.6-1.3-0.6c-0.5,0-0.8,0.1-1.1,0.4c-0.3,0.3-0.4,0.6-0.4,1.1
			c0,0.5,0.1,1,0.5,1.4C180.9,66.6,181.4,67,182,67.2z M181.4,60.9c0,0.3-0.1,0.4-0.4,0.4c-0.2,0-0.3-0.1-0.3-0.4
			c0-0.2,0.1-0.3,0.3-0.3C181.2,60.5,181.4,60.6,181.4,60.9z M182.7,60.9c0,0.3-0.1,0.4-0.4,0.4c-0.2,0-0.4-0.1-0.4-0.4
			c0-0.2,0.1-0.3,0.4-0.3C182.5,60.5,182.7,60.6,182.7,60.9z"/>
		<path fill="#FFFFFF" d="M186.7,66c0,0.6-0.2,1-0.5,1.4c-0.3,0.4-0.8,0.5-1.4,0.5H184v-0.5h0.7c1,0,1.4-0.5,1.4-1.5v-5.2l0.5-0.2
			V66z"/>
		<path fill="#FFFFFF" d="M188.4,67.9h-0.5v-7.2l0.5-0.2V67.9z"/>
		<path fill="#FFFFFF" d="M195.3,65.3c0,0.8-0.1,1.4-0.5,1.8c-0.3,0.5-0.9,0.8-1.6,0.8c-0.7,0-1.3-0.3-1.6-0.8
			c-0.3-0.4-0.5-1.1-0.5-1.8c0-0.8,0.1-1.4,0.5-1.8c0.4-0.5,0.9-0.8,1.6-0.8c0.7,0,1.3,0.3,1.6,0.8
			C195.2,63.9,195.3,64.5,195.3,65.3z M194.8,65.3c0-1.4-0.5-2.1-1.5-2.1c-1,0-1.5,0.7-1.5,2.1c0,1.4,0.5,2.2,1.5,2.2
			C194.3,67.4,194.8,66.7,194.8,65.3z M192.9,60.9c0,0.3-0.1,0.4-0.4,0.4c-0.2,0-0.4-0.1-0.4-0.4c0-0.2,0.1-0.4,0.4-0.4
			C192.8,60.5,192.9,60.6,192.9,60.9z M194.2,60.9c0,0.3-0.1,0.4-0.4,0.4c-0.2,0-0.4-0.1-0.4-0.4c0-0.2,0.1-0.4,0.4-0.4
			C194.1,60.5,194.2,60.6,194.2,60.9z"/>
		<path fill="#FFFFFF" d="M199,67.5c0,0.8-0.2,1.4-0.5,1.9c-0.4,0.5-0.9,0.7-1.7,0.7c-0.4,0-0.7-0.1-1-0.2l-0.2-0.5
			c0.4,0.2,0.8,0.3,1.3,0.3c0.6,0,1-0.2,1.3-0.7c0.3-0.4,0.4-0.9,0.4-1.4v-4.7l0.5-0.2V67.5z"/>
		<path fill="#FFFFFF" d="M202.6,67.9h-1.2c-0.8,0-1.2-0.4-1.2-1.3v-5.9l0.5-0.2v6.1c0,0.6,0.3,0.9,0.8,0.9h1.1V67.9z"/>
		<path fill="#FFFFFF" d="M204.8,66c0,0.6-0.2,1-0.5,1.4c-0.3,0.4-0.8,0.5-1.4,0.5h-0.8v-0.5h0.7c1,0,1.4-0.5,1.4-1.5v-3l0.5-0.2V66
			z M203.2,69.7c0,0.3-0.1,0.4-0.4,0.4c-0.2,0-0.4-0.1-0.4-0.4c0-0.2,0.1-0.3,0.4-0.3C203.1,69.4,203.2,69.5,203.2,69.7z
			 M204.5,69.7c0,0.3-0.1,0.4-0.4,0.4c-0.2,0-0.4-0.1-0.4-0.4c0-0.2,0.1-0.3,0.4-0.3C204.4,69.4,204.5,69.5,204.5,69.7z"/>
		<path fill="#FFFFFF" d="M210.1,67.9h-1.6c-0.1,0.7-0.3,1.2-0.6,1.6c-0.4,0.4-0.9,0.6-1.6,0.6c-0.4,0-0.7-0.1-1-0.2l-0.2-0.5
			c0.4,0.2,0.8,0.3,1.3,0.3c0.6,0,1-0.2,1.3-0.7c0.3-0.4,0.4-0.9,0.4-1.4v-4.7l0.5-0.2v4.7h1.6V67.9z M208.5,60.9
			c0,0.3-0.1,0.4-0.4,0.4c-0.2,0-0.4-0.1-0.4-0.4c0-0.2,0.1-0.4,0.4-0.4C208.4,60.5,208.5,60.6,208.5,60.9z"/>
		<path fill="#FFFFFF" d="M212.3,66c0,0.6-0.2,1-0.5,1.4c-0.3,0.4-0.8,0.5-1.4,0.5h-0.8v-0.5h0.7c1,0,1.4-0.5,1.4-1.5v-3l0.5-0.2V66
			z M211.6,69.7c0,0.3-0.1,0.4-0.4,0.4c-0.2,0-0.4-0.1-0.4-0.4c0-0.2,0.1-0.3,0.4-0.3C211.5,69.4,211.6,69.5,211.6,69.7z"/>
		<path fill="#FFFFFF" d="M222.9,67.9h-1.9c0,0.8-0.2,1.3-0.7,1.7c-0.4,0.4-1.2,0.5-2.1,0.5c-1.1,0-1.8-0.3-2.3-0.9
			c-0.4-0.5-0.6-1.3-0.7-2.4l0.5-0.2c0,1,0.2,1.8,0.6,2.3c0.4,0.5,1,0.7,1.9,0.7c0.7,0,1.3-0.1,1.6-0.3c0.5-0.2,0.7-0.7,0.7-1.4
			v-7.2l0.5-0.2v6.9h1.9V67.9z"/>
		<path fill="#FFFFFF" d="M232.2,67.9h-9.7v-0.5h1.7V64l0.5-0.2v2.1c0.1-0.4,0.3-0.8,0.6-1.2c0.7-1.1,1.6-1.7,2.8-1.8
			c1,0,1.8,0.4,2.3,1.3c0.3,0.6,0.5,1.3,0.5,2.3l0,0.9h1.3V67.9z M230.3,67.4c0-0.3,0.1-0.6,0.1-0.8c0-0.8-0.2-1.5-0.5-2.1
			c-0.4-0.6-1-1-1.7-1c-1,0-1.8,0.5-2.5,1.5c-0.5,0.7-0.8,1.3-0.9,1.9v0.5H230.3z M228.6,60.9c0,0.3-0.1,0.4-0.3,0.4
			c-0.3,0-0.4-0.1-0.4-0.4c0-0.2,0.1-0.4,0.4-0.4C228.5,60.5,228.6,60.6,228.6,60.9z"/>
		<path fill="#FFFFFF" d="M237.4,67.9H236c-0.3,0-0.6-0.1-1-0.2c-0.3,0.1-0.6,0.2-1,0.2h-2.1v-0.5c1.5,0,2.3,0,2.5-0.1
			c-1.2-0.7-1.8-1.7-1.7-2.9c0-0.5,0.2-0.9,0.6-1.2c0.4-0.3,0.9-0.5,1.5-0.5c0.7,0,1.2,0.3,1.6,0.7c0.3,0.4,0.5,0.9,0.5,1.5
			c0,0.5-0.1,0.9-0.3,1.4c-0.2,0.5-0.5,0.8-0.9,1c0.1,0.1,0.7,0.1,1.8,0.1V67.9z M235,67.2c0.4-0.1,0.7-0.4,1-0.8
			c0.2-0.4,0.4-0.9,0.4-1.3c0-0.5-0.1-0.9-0.4-1.2c-0.3-0.4-0.7-0.6-1.3-0.6c-0.5,0-0.8,0.1-1.1,0.4c-0.3,0.3-0.4,0.6-0.4,1.1
			c0,0.5,0.1,1,0.5,1.4C233.9,66.6,234.4,67,235,67.2z M234.9,60.9c0,0.3-0.1,0.4-0.4,0.4c-0.2,0-0.4-0.1-0.4-0.4
			c0-0.2,0.1-0.3,0.4-0.3C234.8,60.5,234.9,60.6,234.9,60.9z"/>
		<path fill="#FFFFFF" d="M239.7,66c0,0.6-0.2,1-0.5,1.4c-0.3,0.4-0.8,0.5-1.4,0.5H237v-0.5h0.7c1,0,1.4-0.5,1.4-1.5v-3l0.5-0.2V66z
			 M238.5,60.9c0,0.3-0.1,0.4-0.4,0.4c-0.2,0-0.4-0.1-0.4-0.4c0-0.2,0.1-0.4,0.4-0.4C238.3,60.5,238.5,60.6,238.5,60.9z M239.7,60.9
			c0,0.3-0.1,0.4-0.4,0.4c-0.2,0-0.4-0.1-0.4-0.4c0-0.2,0.1-0.4,0.4-0.4C239.6,60.5,239.7,60.6,239.7,60.9z"/>
	</g>
</g>
</svg>
