<?xml version="1.0" encoding="utf-8"?>
<!-- Generator: Adobe Illustrator 18.0.0, SVG Export Plug-In . SVG Version: 6.00 Build 0)  -->
<!DOCTYPE svg PUBLIC "-//W3C//DTD SVG 1.1//EN" "http://www.w3.org/Graphics/SVG/1.1/DTD/svg11.dtd">
<svg version="1.1" id="Layer_1" xmlns="http://www.w3.org/2000/svg" xmlns:xlink="http://www.w3.org/1999/xlink" x="0px" y="0px"
	 viewBox="0 0 226 57" enable-background="new 0 0 226 57" xml:space="preserve">
<g>
	<polygon fill="#FFFFFF" points="177.7,52.1 225.7,52.1 225.7,52.1 	"/>
	<polygon fill="#FFFFFF" points="0.4,52.1 49.4,52.1 49.4,52.1 	"/>
	<g>
		<path fill="#FFFFFF" d="M57.5,52.1c0,0.5-0.1,0.9-0.3,1.2c-0.3,0.4-0.7,0.6-1.2,0.6s-1-0.2-1.2-0.6c-0.2-0.3-0.3-0.7-0.3-1.2
			c0-0.5,0.1-0.8,0.2-1.1h-0.4c-0.4,0-0.7,0.1-0.9,0.2c-0.2,0.1-0.3,0.4-0.3,0.7v3.3l-0.8,0.2v-3.6c0-0.6,0.2-1,0.5-1.3
			c0.3-0.2,0.7-0.3,1.3-0.3h1.9c0.5,0,1,0.2,1.2,0.6C57.4,51.2,57.5,51.6,57.5,52.1z M56.8,52.1c0-0.7-0.3-1.1-0.8-1.1
			s-0.8,0.4-0.8,1.1s0.3,1.1,0.8,1.1S56.8,52.9,56.8,52.1z"/>
		<path fill="#FFFFFF" d="M62.2,53.9h-1c-0.1,0.4-0.2,0.8-0.5,1.1c-0.3,0.3-0.7,0.5-1.2,0.5c-0.4,0-0.7-0.1-0.9-0.2l-0.3-0.7
			c0.5,0.2,0.9,0.3,1.3,0.3c0.2,0,0.5-0.1,0.6-0.3c0.2-0.2,0.3-0.4,0.3-0.6h-0.6c-0.5,0-1-0.2-1.2-0.5c-0.3-0.3-0.4-0.7-0.4-1.2
			c0-0.5,0.1-1,0.4-1.3c0.3-0.4,0.7-0.6,1.2-0.6c1,0,1.5,0.6,1.5,1.9v1h0.9v0.6H62.2z M60.6,52.3c0-0.4,0-0.7-0.1-0.8
			c-0.1-0.3-0.3-0.4-0.7-0.4c-0.6,0-0.8,0.4-0.8,1.2c0,0.7,0.3,1,0.9,1h0.7L60.6,52.3z"/>
		<path fill="#FFFFFF" d="M65.4,53.9h-0.5c-0.5,0-0.8-0.1-1.1-0.4c-0.3,0.3-0.7,0.4-1.1,0.4h-0.6v-0.7h0.5c0.5,0,0.8-0.3,0.8-0.8
			v-1.9l0.8-0.2v2.2c0,0.5,0.3,0.8,0.8,0.8h0.4C65.4,53.3,65.4,53.9,65.4,53.9z M63.7,55.1c0,0.1,0,0.2-0.1,0.3s-0.2,0.1-0.3,0.1
			s-0.2,0-0.3-0.1s-0.1-0.2-0.1-0.3s0-0.2,0.1-0.3c0.1-0.1,0.2-0.1,0.3-0.1s0.2,0,0.3,0.1C63.6,54.9,63.7,55,63.7,55.1z M64.7,55.1
			c0,0.1,0,0.2-0.1,0.3s-0.2,0.1-0.3,0.1c-0.1,0-0.2,0-0.3-0.1s-0.1-0.2-0.1-0.3s0-0.2,0.1-0.3c0.1-0.1,0.2-0.1,0.3-0.1
			s0.2,0,0.3,0.1C64.7,54.9,64.7,55,64.7,55.1z"/>
		<path fill="#FFFFFF" d="M67.2,52.5c0,0.4-0.1,0.7-0.4,1c-0.3,0.3-0.6,0.4-1.1,0.4h-0.5v-0.7h0.5c0.5,0,0.8-0.3,0.8-0.8v-3.5
			l0.8-0.2v3.8H67.2z"/>
		<path fill="#FFFFFF" d="M68.7,53.9h-0.8v-5l0.8-0.2V53.9z"/>
		<path fill="#FFFFFF" d="M75.1,53.9h-0.5c-0.6,0-1-0.2-1.2-0.6c-0.2,0.4-0.6,0.6-1.2,0.6c-1,0-1.5-0.6-1.5-1.8s0.5-1.8,1.5-1.8h1.6
			v2.2c0,0.5,0.3,0.8,0.8,0.8h0.5V53.9z M73.1,50.9h-0.8c-0.3,0-0.5,0.1-0.7,0.3c-0.1,0.2-0.2,0.5-0.2,0.9c0,0.4,0.1,0.7,0.2,0.9
			s0.3,0.3,0.7,0.3c0.3,0,0.5-0.1,0.7-0.3c0.1-0.2,0.2-0.5,0.2-0.9v-1.2H73.1z M72.4,49.2c0,0.1,0,0.2-0.1,0.3
			c-0.1,0.1-0.2,0.1-0.3,0.1c-0.1,0-0.2,0-0.3-0.1c-0.1-0.1-0.1-0.2-0.1-0.3s0-0.2,0.1-0.3c0.1-0.1,0.2-0.1,0.3-0.1
			c0.1,0,0.2,0,0.3,0.1C72.4,49,72.4,49.1,72.4,49.2z M73.5,49.2c0,0.1,0,0.2-0.1,0.3s-0.2,0.1-0.3,0.1c-0.1,0-0.2,0-0.3-0.1
			c-0.1-0.1-0.1-0.2-0.1-0.3s0-0.2,0.1-0.3c0.1-0.1,0.2-0.1,0.3-0.1c0.1,0,0.2,0,0.3,0.1C73.4,49,73.5,49.1,73.5,49.2z"/>
		<path fill="#FFFFFF" d="M79.2,53.9h-4.3v-0.7h3.5v-0.3c0-0.6-0.1-1.1-0.2-1.3c-0.2-0.5-0.5-0.7-1.1-0.7c-0.4,0-0.9,0.2-1.2,0.6
			l-0.5-0.4c0.5-0.5,1.1-0.8,1.8-0.8c0.8,0,1.4,0.3,1.7,0.9c0.2,0.4,0.3,1,0.3,1.8C79.2,53,79.2,53.9,79.2,53.9z"/>
		<path fill="#FFFFFF" d="M81.8,53.9h-0.9c-0.3,0-0.6-0.1-0.8-0.3c-0.2-0.2-0.3-0.4-0.3-0.7V49l0.8-0.2v4.1c0,0.3,0.1,0.4,0.4,0.4
			h0.8V53.9z"/>
		<path fill="#FFFFFF" d="M85,53.9h-0.5c-0.5,0-0.8-0.1-1.1-0.4c-0.3,0.3-0.7,0.4-1.1,0.4h-0.6v-0.7h0.5c0.5,0,0.8-0.3,0.8-0.8v-1.9
			l0.8-0.2v2.2c0,0.5,0.3,0.8,0.8,0.8H85L85,53.9L85,53.9z M83.2,49.2c0,0.1,0,0.2-0.1,0.3s-0.2,0.1-0.3,0.1c-0.1,0-0.2,0-0.3-0.1
			c-0.1-0.1-0.1-0.2-0.1-0.3s0-0.2,0.1-0.3c0.1-0.1,0.2-0.1,0.3-0.1c0.1,0,0.2,0,0.3,0.1C83.2,49,83.2,49.1,83.2,49.2z M84.3,49.2
			c0,0.1,0,0.2-0.1,0.3s-0.2,0.1-0.3,0.1s-0.2,0-0.3-0.1c-0.1-0.1-0.1-0.2-0.1-0.3s0-0.2,0.1-0.3c0.1-0.1,0.2-0.1,0.3-0.1
			c0.1,0,0.2,0,0.3,0.1C84.3,49,84.3,49.1,84.3,49.2z"/>
		<path fill="#FFFFFF" d="M90.3,53.9h-0.1c-0.5,0-0.8-0.2-1.1-0.5c-0.1,0.3-0.3,0.6-0.6,0.8c-0.3,0.2-0.6,0.3-1,0.3
			c-0.8,0-1.3-0.3-1.5-1c-0.2,0.3-0.6,0.4-1,0.4h-0.3v-0.7h0.2c0.6,0,0.9-0.3,1-0.8c0.1-0.9,0.7-1.4,1.6-1.4c0.5,0,0.9,0.1,1.2,0.4
			c0.2,0.2,0.4,0.6,0.5,1c0.1,0.5,0.4,0.8,1,0.8h0.2v0.7H90.3z M88.4,52.8c0-0.7-0.3-1.1-0.8-1.1c-0.6,0-0.9,0.4-0.9,1.1
			c0,0.7,0.3,1.1,0.9,1.1C88.1,53.9,88.4,53.5,88.4,52.8z"/>
		<path fill="#FFFFFF" d="M92.2,52.5c0,0.4-0.1,0.7-0.4,1c-0.3,0.3-0.6,0.4-1.1,0.4h-0.5v-0.7h0.5c0.5,0,0.8-0.3,0.8-0.8v-3.5
			l0.8-0.2v3.8H92.2z"/>
		<path fill="#FFFFFF" d="M93.6,53.9h-0.8v-5l0.8-0.2V53.9z"/>
		<path fill="#FFFFFF" d="M101.5,52.6c0,0.4-0.1,0.8-0.4,1c-0.3,0.2-0.6,0.4-1.1,0.4h-2.9c-0.4,0-0.8-0.1-1-0.4
			c-0.3-0.3-0.4-0.6-0.4-1v-0.8l0.8-0.8v1.5c0,0.5,0.3,0.8,0.8,0.8h2.7c0.5,0,0.8-0.3,0.8-0.8v-2l0.7-0.2V52.6z M98.4,50.4
			c0,0.1,0,0.2-0.1,0.3s-0.2,0.1-0.3,0.1s-0.2,0-0.3-0.1c-0.1-0.1-0.1-0.2-0.1-0.3c0-0.1,0-0.2,0.1-0.3S97.9,50,98,50s0.2,0,0.3,0.1
			C98.4,50.2,98.4,50.3,98.4,50.4z M99.5,50.4c0,0.1,0,0.2-0.1,0.3s-0.2,0.1-0.3,0.1c-0.1,0-0.2,0-0.3-0.1c-0.1-0.1-0.1-0.2-0.1-0.3
			c0-0.1,0-0.2,0.1-0.3S99,50,99.1,50c0.1,0,0.2,0,0.3,0.1C99.5,50.2,99.5,50.3,99.5,50.4z"/>
		<path fill="#FFFFFF" d="M104.1,53.9h-0.9c-0.3,0-0.6-0.1-0.8-0.3c-0.2-0.2-0.3-0.4-0.3-0.7V49l0.8-0.2v4.1c0,0.3,0.1,0.4,0.4,0.4
			h0.8V53.9z"/>
		<path fill="#FFFFFF" d="M108.1,52.2c0,0.5-0.1,0.9-0.3,1.2c-0.3,0.4-0.7,0.5-1.2,0.5s-0.8-0.1-1.1-0.4c-0.3,0.3-0.7,0.4-1.2,0.4
			h-0.4v-0.7h0.3c0.5,0,0.8-0.3,0.8-0.8v-0.3c0-0.5,0.1-0.9,0.3-1.2c0.3-0.4,0.7-0.5,1.2-0.5c0.6,0,1,0.2,1.2,0.5
			C108,51.3,108.1,51.7,108.1,52.2z M107.3,52.2c0-0.7-0.3-1.1-0.8-1.1s-0.8,0.4-0.8,1.1s0.3,1.1,0.8,1.1
			C107.1,53.3,107.3,52.9,107.3,52.2z"/>
		<path fill="#FFFFFF" d="M112.8,53.9h-1c-0.1,0.4-0.2,0.8-0.5,1.1c-0.3,0.3-0.7,0.5-1.2,0.5c-0.4,0-0.7-0.1-0.9-0.2l-0.3-0.7
			c0.5,0.2,0.9,0.3,1.3,0.3c0.2,0,0.5-0.1,0.6-0.3c0.2-0.2,0.3-0.4,0.3-0.6h-0.6c-0.5,0-1-0.2-1.2-0.5c-0.3-0.3-0.4-0.7-0.4-1.2
			c0-0.5,0.1-1,0.4-1.3c0.3-0.4,0.7-0.6,1.2-0.6c1,0,1.5,0.6,1.5,1.9v1h0.9v0.6H112.8z M111.2,52.3c0-0.4,0-0.7-0.1-0.8
			c-0.1-0.3-0.3-0.4-0.7-0.4c-0.6,0-0.8,0.4-0.8,1.2c0,0.7,0.3,1,0.9,1h0.7V52.3z"/>
		<path fill="#FFFFFF" d="M120.1,53.9h-7.3v-0.7h1v-2l0.8-0.2v2.3h1.6v-2.4l0.8-0.2v2.6h1.6v-2.7l0.8-0.2v3h0.9v0.5H120.1z"/>
		<path fill="#FFFFFF" d="M125.3,53.9h-5.4v-0.7h3.6v-0.3c0-0.6-0.1-1.1-0.2-1.3c-0.2-0.5-0.5-0.7-1.1-0.7c-0.4,0-0.8,0.2-1.2,0.6
			l-0.5-0.5c0.5-0.5,1.1-0.8,1.8-0.8c0.8,0,1.4,0.3,1.7,0.9c0.2,0.4,0.3,1,0.3,1.8v0.3h1C125.3,53.2,125.3,53.9,125.3,53.9z"/>
		<path fill="#FFFFFF" d="M127.2,52.5c0,0.4-0.1,0.7-0.4,1c-0.3,0.3-0.6,0.4-1.1,0.4h-0.5v-0.7h0.5c0.5,0,0.8-0.3,0.8-0.8v-3.5
			l0.8-0.2v3.8H127.2z"/>
		<path fill="#FFFFFF" d="M128.6,53.9h-0.8v-5l0.8-0.2V53.9z"/>
		<path fill="#FFFFFF" d="M134.7,53.9c0,0.5-0.2,0.9-0.5,1.2c-0.3,0.2-0.8,0.4-1.4,0.4c-0.7,0-1.3-0.2-1.6-0.6
			c-0.3-0.3-0.5-0.8-0.5-1.4c0-0.5,0.1-1,0.3-1.5l0.9-0.5c-0.3,0.7-0.5,1.3-0.5,1.9c0,0.5,0.1,0.8,0.3,1.1c0.2,0.3,0.6,0.4,1,0.4
			s0.7,0,0.8-0.1c0.3-0.1,0.5-0.4,0.5-0.7c-0.5,0-0.8-0.2-1-0.6l0.4-0.7c0.1,0.3,0.2,0.4,0.3,0.5c0.1,0.1,0.3,0.1,0.6,0.1h0.3v0.5
			H134.7z"/>
		<path fill="#FFFFFF" d="M138,53.9h-0.5c-0.5,0-0.8-0.1-1.1-0.4c-0.3,0.3-0.6,0.4-1.1,0.4h-0.7v-0.7h0.6c0.5,0,0.8-0.3,0.8-0.8
			v-3.5l0.8-0.2v3.7c0,0.5,0.3,0.8,0.8,0.8h0.5v0.7H138z"/>
		<path fill="#FFFFFF" d="M142.2,53.9h-4.3v-0.7h0.9v-1.4c0-0.4,0.1-0.8,0.4-1.1c0.3-0.3,0.7-0.5,1.2-0.5c0.4,0,0.8,0.2,1.1,0.5
			l-0.6,0.5c-0.2-0.2-0.4-0.3-0.7-0.3c-0.2,0-0.4,0.1-0.6,0.2c-0.1,0.1-0.2,0.3-0.2,0.6v1.5h2.1L142.2,53.9z"/>
		<path fill="#FFFFFF" d="M147.4,52.1c0,0.5-0.1,0.9-0.3,1.3c-0.3,0.4-0.7,0.6-1.3,0.6s-1-0.2-1.3-0.6c-0.2-0.3-0.3-0.7-0.3-1.3
			c0-0.5,0.1-0.9,0.3-1.2c0.3-0.4,0.7-0.6,1.3-0.6s1,0.2,1.3,0.6C147.3,51.2,147.4,51.6,147.4,52.1z M145.7,49.2
			c0,0.1,0,0.2-0.1,0.3c-0.1,0.1-0.2,0.1-0.3,0.1c-0.1,0-0.2,0-0.3-0.1c-0.1-0.1-0.1-0.2-0.1-0.3s0-0.2,0.1-0.3
			c0.1-0.1,0.2-0.1,0.3-0.1c0.1,0,0.2,0,0.3,0.1C145.6,49,145.7,49.1,145.7,49.2z M146.7,52.1c0-0.8-0.3-1.2-0.9-1.2
			c-0.6,0-0.9,0.4-0.9,1.2c0,0.8,0.3,1.2,0.9,1.2S146.7,52.9,146.7,52.1z M146.8,49.2c0,0.1,0,0.2-0.1,0.3c-0.1,0.1-0.2,0.1-0.3,0.1
			c-0.1,0-0.2,0-0.3-0.1c-0.1-0.1-0.1-0.2-0.1-0.3s0-0.2,0.1-0.3c0.1-0.1,0.2-0.1,0.3-0.1c0.1,0,0.2,0,0.3,0.1
			C146.7,49,146.8,49.1,146.8,49.2z"/>
		<path fill="#FFFFFF" d="M151.7,53.9h-1.1c-0.1,0.5-0.2,0.8-0.5,1.1c-0.3,0.3-0.7,0.4-1.3,0.4c-0.3,0-0.6-0.1-0.9-0.2l-0.4-0.8
			c0.4,0.2,0.8,0.3,1.2,0.3c0.3,0,0.6-0.1,0.8-0.3c0.2-0.2,0.3-0.5,0.3-0.8v-3.2l0.8-0.2v3h1.1L151.7,53.9L151.7,53.9z"/>
		<path fill="#FFFFFF" d="M158.4,53.9h-6.9v-0.7h1v-4.1l0.8-0.2v2.8c0.5-0.8,1.2-1.3,2.2-1.3c0.8,0,1.4,0.3,1.8,0.9
			c0.3,0.4,0.4,1.1,0.4,2h0.8v0.6H158.4z M156.8,53.3c0-0.1,0-0.2,0-0.4c0-0.5-0.1-0.9-0.3-1.3c-0.2-0.3-0.6-0.5-1-0.5
			c-0.5,0-1,0.2-1.5,0.8c-0.4,0.4-0.6,0.9-0.8,1.4H156.8z M155.8,49.2c0,0.1,0,0.2-0.1,0.3c-0.1,0.1-0.2,0.1-0.3,0.1
			c-0.1,0-0.2,0-0.3-0.1c-0.1-0.1-0.1-0.2-0.1-0.3s0-0.2,0.1-0.3c0.1-0.1,0.2-0.1,0.3-0.1c0.1,0,0.2,0,0.3,0.1
			C155.8,49,155.8,49.1,155.8,49.2z"/>
		<path fill="#FFFFFF" d="M160.3,52.5c0,0.4-0.1,0.8-0.4,1c-0.3,0.3-0.6,0.4-1.1,0.4h-0.6v-0.7h0.6c0.5,0,0.8-0.3,0.8-0.8v-1.9
			l0.8-0.2v2.2H160.3z M159.8,49.2c0,0.1,0,0.2-0.1,0.3c-0.1,0.1-0.2,0.1-0.3,0.1c-0.1,0-0.2,0-0.3-0.1c-0.1-0.1-0.1-0.2-0.1-0.3
			s0-0.2,0.1-0.3c0.1-0.1,0.2-0.1,0.3-0.1c0.1,0,0.2,0,0.3,0.1C159.8,49,159.8,49.1,159.8,49.2z"/>
		<path fill="#FFFFFF" d="M166.4,53.9c0,0.5-0.2,0.9-0.5,1.2c-0.3,0.2-0.8,0.4-1.4,0.4c-0.7,0-1.3-0.2-1.6-0.6
			c-0.3-0.3-0.5-0.8-0.5-1.4c0-0.5,0.1-1,0.3-1.5l0.9-0.5c-0.3,0.7-0.5,1.3-0.5,1.9c0,0.5,0.1,0.8,0.3,1.1c0.2,0.3,0.6,0.4,1,0.4
			s0.7,0,0.8-0.1c0.3-0.1,0.5-0.4,0.5-0.7c-0.5,0-0.8-0.2-1-0.6l0.4-0.7c0.1,0.3,0.2,0.4,0.3,0.5c0.1,0.1,0.3,0.1,0.6,0.1h0.3v0.5
			H166.4z M164.3,56.6c0,0.1,0,0.2-0.1,0.3c-0.1,0.1-0.2,0.1-0.3,0.1s-0.2,0-0.3-0.1c-0.1-0.1-0.1-0.2-0.1-0.3s0-0.2,0.1-0.3
			c0.1-0.1,0.2-0.1,0.3-0.1s0.2,0,0.3,0.1C164.2,56.3,164.3,56.4,164.3,56.6z M165.4,56.6c0,0.1,0,0.2-0.1,0.3
			c-0.1,0.1-0.2,0.1-0.3,0.1c-0.1,0-0.2,0-0.3-0.1c-0.1-0.1-0.1-0.2-0.1-0.3s0-0.2,0.1-0.3c0.1-0.1,0.2-0.1,0.3-0.1
			c0.1,0,0.2,0,0.3,0.1C165.3,56.4,165.4,56.4,165.4,56.6z"/>
		<path fill="#FFFFFF" d="M170.9,53.9h-1.7c-0.2,0-0.3,0-0.5,0s-0.3,0-0.5,0h-1.8v-0.7h1.2c-0.3-0.4-0.5-0.7-0.5-1.1
			c0-0.5,0.1-0.9,0.3-1.3c0.3-0.4,0.7-0.6,1.3-0.6s1,0.2,1.3,0.6c0.2,0.3,0.3,0.7,0.3,1.3c0,0.4-0.2,0.8-0.5,1.1h1.2v0.7H170.9z
			 M168.4,49.2c0,0.1,0,0.2-0.1,0.3c-0.1,0.1-0.2,0.1-0.3,0.1c-0.1,0-0.2,0-0.3-0.1c-0.1-0.1-0.1-0.2-0.1-0.3s0-0.2,0.1-0.3
			c0.1-0.1,0.2-0.1,0.3-0.1c0.1,0,0.2,0,0.3,0.1C168.4,49,168.4,49.1,168.4,49.2z M168.5,51c-0.2,0-0.5,0.1-0.6,0.3
			c-0.2,0.2-0.2,0.4-0.2,0.7c0,0.3,0.1,0.5,0.2,0.8c0.2,0.3,0.4,0.5,0.6,0.5c0.3-0.1,0.5-0.3,0.6-0.5c0.1-0.2,0.2-0.5,0.2-0.8
			c0-0.3-0.1-0.5-0.2-0.7C169,51.1,168.8,51,168.5,51z M169.5,49.2c0,0.1,0,0.2-0.1,0.3c-0.1,0.1-0.2,0.1-0.3,0.1
			c-0.1,0-0.2,0-0.3-0.1c-0.1-0.1-0.1-0.2-0.1-0.3s0-0.2,0.1-0.3c0.1-0.1,0.2-0.1,0.3-0.1c0.1,0,0.2,0,0.3,0.1
			C169.4,49,169.5,49.1,169.5,49.2z"/>
		<path fill="#FFFFFF" d="M172.7,52.5c0,0.4-0.1,0.7-0.4,1c-0.3,0.3-0.6,0.4-1.1,0.4h-0.5v-0.7h0.5c0.5,0,0.8-0.3,0.8-0.8v-3.5
			l0.8-0.2v3.8H172.7z"/>
		<path fill="#FFFFFF" d="M174.4,48.4h-1.3l0.2-0.3h0.2v-0.2c0-0.4,0.2-0.6,0.5-0.6c0.1,0,0.3,0.1,0.4,0.2l-0.2,0.2
			c-0.1-0.1-0.1-0.1-0.2-0.1c-0.1,0-0.2,0.1-0.2,0.3v0.2h0.6V48.4z M174.2,53.9h-0.8v-5l0.8-0.2V53.9z"/>
	</g>
	<g>
		<path fill="#FFFFFF" d="M21.1,9H10.5c-3.3,0-5.9,0.7-7.6,2C1,12.6,0,15.1,0,18.7v20.9L5,38V18.7c0-1.8,0.7-3.2,1.5-3.7
			c0.5-0.4,2-0.9,4.8-0.9h1.4c-0.6,2-0.9,3.4-0.9,5.5c0,2.9,0.7,5.4,2,7.3c1.6,2.3,4.1,3.5,7.4,3.5c3.2,0,5.7-1.2,7.3-3.5
			c1.3-1.9,2-4.3,2-7.2s-0.7-5.3-2-7.2C26.8,10.2,24.4,9,21.1,9z M21.1,25.3c-1.6,0-3.8-0.6-3.8-5.6s2.2-5.6,3.8-5.6
			c1.6,0,3.8,0.6,3.8,5.6S22.7,25.3,21.1,25.3z"/>
		<path fill="#FFFFFF" d="M61.7,33.4c-0.9,0-1.6,0.3-2.1,0.9c-0.6,0.6-0.9,1.3-0.9,2.1c0,0.8,0.3,1.5,0.8,2.1
			c0.6,0.6,1.3,0.9,2.1,0.9c0.8,0,1.5-0.3,2.1-0.9c0.6-0.6,0.9-1.3,0.9-2.1c0-0.8-0.3-1.5-0.9-2.1C63.2,33.7,62.5,33.4,61.7,33.4z"
			/>
		<path fill="#FFFFFF" d="M65.7,34.3c-0.6,0.6-0.9,1.3-0.9,2.1c0,0.8,0.3,1.5,0.8,2.1c0.6,0.6,1.3,0.9,2.1,0.9
			c0.8,0,1.5-0.3,2.1-0.9c0.6-0.6,0.9-1.3,0.9-2.1c0-0.8-0.3-1.5-0.9-2.1C68.6,33.1,66.8,33.2,65.7,34.3z"/>
		<path fill="#FFFFFF" d="M78.1,21.6c0,2.7-0.2,4.4-2.8,4.4h-2.7l0,0h-1.3c-2.6,0-4.2-1.6-4.2-4.2v-13l-6,1.6v11.3
			c0,2.7-0.3,4.3-3,4.3h-1.3h-2.4h-2.5l0.1-5c0-7.4-3.1-11.3-9.3-11.3c-3.3,0-5.8,1.2-7.5,3.6c-1.4,2-2.1,4.5-2.1,7.6
			c0,2.9,0.8,5.4,2.5,7.1c1.7,1.9,4.2,3.1,7.5,3.1h2.7c-0.2,1-0.7,1.5-1.4,2.1c-0.9,0.8-1.9,1.2-3.1,1.2c-2,0.1-4.3-0.5-6.8-1.6
			l-1.5-0.7l2.7,5.8l0.2,0.1c1.3,0.8,3.2,1.3,5.6,1.3c2.8,0,5.2-0.8,7-2.6c1.5-1.5,2.5-3.7,3-5.7h3.1H57h1.5c2.6,0,4.8-0.7,6.4-2.1
			c1.6,1.4,3.7,2.1,6.3,2.1h1h2.4h1.2c2.7,0,4.6-1,6.4-2.6c1.7-1.7,2.2-3.9,2.2-6.4V0.1l-6,1.6v19.9H78.1z M42.6,14.6
			c1.6,0,2.6,0.6,3.2,1.9c0.4,0.8,0.5,2.4,0.5,4.5v5H43c-3,0-4.4-1.7-4.4-5C38.6,14.8,41.6,14.6,42.6,14.6z"/>
		<polygon fill="#FFFFFF" points="86.1,31.1 93.1,31.1 93.1,0 86.1,1.8 		"/>
		<path fill="#FFFFFF" d="M155.2,24L155.2,24h0.6c-0.1-4-0.7-6.9-2.1-9.1c-2.2-3.7-5.6-5.6-9.9-5.6c-0.2,0-0.3-0.1-0.5-0.1
			c-5.2,0.1-9.3,2.5-12.3,6.9c-0.7,1.1-1.9,2.2-1.9,3.4V13l-5,1.7v13.9c0,3.7-2.6,5.5-7.4,5.5c-3,0-5.3-0.7-6.5-2
			c-1.2-1.4-2.1-3.8-2.1-7.1v-4.8l-5.4,1.6v0.5c-0.1,5.4,0.6,9.2,2,11.7c2.1,3.5,6,5.5,11.6,5.5c7.8,0,12-2.5,12.6-8.5h26.6v-0.8
			c0.2-4.9,0.2-5.9,0.3-6l-0.1-0.2L155.2,24C155.2,24,155.2,24.1,155.2,24z M150.5,24.2c0,0.5,0,1.8-0.1,1.8h-18.8
			c0.3-3,1.5-4.6,3.6-7c2.5-2.9,5.3-4.5,8.3-4.5c2.4,0,4.2,1,5.4,3C150,19.3,150.5,21.5,150.5,24.2z"/>
		<path fill="#FFFFFF" d="M143.7,6.2c0.8,0,1.5-0.3,2.1-0.8c0.6-0.6,0.9-1.3,0.9-2.1s-0.3-1.5-0.9-2.1c-1.3-1.1-3.1-1.1-4.4,0
			c-0.6,0.6-0.9,1.3-0.9,2.1c0,0.9,0.3,1.6,0.9,2.1C142.1,5.9,142.9,6.2,143.7,6.2z"/>
		<path fill="#FFFFFF" d="M221.6,26h-12.3v-8.2c0-1.1,0.9-2.1,1.5-2.8s1.8-1.1,2.9-1.1c1.2,0,2.3,0.6,3.3,1.7l0.5,0.5l4.2-3.8
			l-0.5-0.5c-2-1.9-4.3-2.8-6.8-2.8c-3,0-5.7,0.9-7.4,2.8c-1.7,1.8-2.8,4.1-2.8,6.7V26h-2.3h-2.3h-5.3V8.8l-5,1.6v18.3
			c0,1.7-0.1,3.1-1,4c-0.9,1-1.9,1.5-3.6,1.5c-2.4,0-4.5-0.5-6.4-1.6l-0.9-0.5c0.3-1.2,0.5-2.5,0.6-3.9c0-0.3,0-1,0.1-2.8
			c0-0.9,0.1-2,0.1-3.3c0-3.6-0.5-6.4-1.6-8.3c-1.5-2.7-4.1-4-7.8-4c-3.3,0-5.9,1.2-7.5,3.5c-1.3,1.9-2,4.3-2,7.3
			c0,2.9,0.7,5.3,2,7.2c1.6,2.3,4.1,3.5,7.5,3.5c1.2,0,2.4-0.2,3.4-0.6c-0.6,2.3-2.1,3.5-4.6,3.6c-2.2,0.1-4.5-0.4-6.9-1.5l-1.6-0.8
			l2.7,6l0.2,0.1c1.4,0.8,3.3,1.3,5.6,1.3c3.4,0,6-1.1,7.8-3.3c0.8-0.9,1.4-1.9,1.8-3.1l2.4,5l0.2,0.1c1.4,0.9,3.1,1.3,5.2,1.3
			c3,0,5.5-0.7,7.5-2.4c1.7-1.5,2.8-3.9,3.2-5.9h4.2h2.3H226L221.6,26z M168.6,26.2c-1,0-3.9,0-3.9-5.7c0-5.8,2.9-5.8,3.9-5.8
			c1.7,0,3.9,0.6,3.9,5.8C172.6,25.6,170.4,26.2,168.6,26.2z"/>
	</g>
</g>
</svg>
