<?xml version="1.0" encoding="utf-8"?>
<!-- Generator: Adobe Illustrator 18.0.0, SVG Export Plug-In . SVG Version: 6.00 Build 0)  -->
<!DOCTYPE svg PUBLIC "-//W3C//DTD SVG 1.1//EN" "http://www.w3.org/Graphics/SVG/1.1/DTD/svg11.dtd">
<svg version="1.1" id="Layer_1" xmlns="http://www.w3.org/2000/svg" xmlns:xlink="http://www.w3.org/1999/xlink" x="0px" y="0px"
	 viewBox="363.4 189.1 463.8 463.8" enable-background="new 363.4 189.1 463.8 463.8" xml:space="preserve">
<g>
	<path fill="#333333" d="M363.4,463.4c0-10.4,4.3-20.5,11.3-27.9L593.6,217c15.6-15.6,45.3-27.9,67-27.9H788
		c21.5,0,39.2,17.8,39.2,39.2v127.4c0,21.7-12.3,51.4-27.9,66.7L580.4,641.5c-7.1,7.1-17.2,11.3-27.5,11.3s-20.5-4.3-27.9-11.3
		L374.7,490.9C367.7,483.8,363.4,473.7,363.4,463.4z M690,287c0,21.7,17.4,39.2,39.2,39.2c21.7,0,39.2-17.4,39.2-39.2
		s-17.4-39.2-39.2-39.2C707.5,247.9,690,265.3,690,287z"/>
</g>
</svg>
