<?xml version="1.0" encoding="utf-8"?>
<!-- Generator: Adobe Illustrator 18.0.0, SVG Export Plug-In . SVG Version: 6.00 Build 0)  -->
<!DOCTYPE svg PUBLIC "-//W3C//DTD SVG 1.1//EN" "http://www.w3.org/Graphics/SVG/1.1/DTD/svg11.dtd">
<svg version="1.1" id="Layer_1" xmlns="http://www.w3.org/2000/svg" xmlns:xlink="http://www.w3.org/1999/xlink" x="0px" y="0px"
	 viewBox="0 0 1024 1024" enable-background="new 0 0 1024 1024" xml:space="preserve">
<g>
	<path fill="#333333" d="M230,563.6c0-12.7,5.2-24.9,13.8-33.9L510,263.9c19-19,55.1-33.9,81.5-33.9h154.9
		c26.1,0,47.7,21.6,47.7,47.7v154.9c0,26.4-14.9,62.5-33.9,81.1L493.9,780.3c-8.6,8.6-20.9,13.8-33.5,13.8s-24.9-5.2-33.9-13.8
		L243.7,597.1C235.2,588.5,230,576.2,230,563.6z M627.2,349.1c0,26.4,21.2,47.7,47.7,47.7c26.4,0,47.7-21.2,47.7-47.7
		s-21.2-47.7-47.7-47.7C648.5,301.5,627.2,322.7,627.2,349.1z"/>
</g>
</svg>
