<?xml version="1.0" encoding="utf-8"?>
<!-- Generator: Adobe Illustrator 18.0.0, SVG Export Plug-In . SVG Version: 6.00 Build 0)  -->
<!DOCTYPE svg PUBLIC "-//W3C//DTD SVG 1.1//EN" "http://www.w3.org/Graphics/SVG/1.1/DTD/svg11.dtd">
<svg version="1.1" id="Layer_1" xmlns="http://www.w3.org/2000/svg" xmlns:xlink="http://www.w3.org/1999/xlink" x="0px" y="0px"
	 viewBox="1247.6 848 373 105.3" enable-background="new 1247.6 848 373 105.3" xml:space="preserve">
<g>
	<g>
		<defs>
			<polygon id="SVGID_1_" points="1299,953.1 1247.7,901.6 1299,850.1 1350.5,901.6 			"/>
		</defs>
		<clipPath id="SVGID_2_">
			<use xlink:href="#SVGID_1_"  overflow="visible"/>
		</clipPath>
		<g clip-path="url(#SVGID_2_)">
			<path fill="#F42534" d="M1307.5,871.5c-16.5,0-31.8,5.4-44.3,14.6l-9.1,9.1c-3.5,3.5-3.5,9.3,0,12.8l38.7,38.7
				c3.5,3.5,9.3,3.5,12.8,0l38.7-38.7c3.5-3.5,3.5-9.3,0-12.8l-22.3-22.3c-4.6-0.9-9.3-1.4-14.1-1.4H1307.5z"/>
			<path fill="#F42534" d="M1307.5,868.7h0.4c3.5,0,7.2,0.4,10.5,0.7l-13-13c-3.5-3.5-9.3-3.5-12.7,0l-20.9,20.9
				C1282.5,871.9,1294.6,868.7,1307.5,868.7z"/>
			<path display="none" fill="#231F20" d="M1307.5,868.7h0.4c3.5,0,7.2,0.4,10.5,0.7l-13-13c-3.5-3.5-9.3-3.5-12.7,0l-20.9,20.9
				C1282.5,871.9,1294.6,868.7,1307.5,868.7z"/>
			<g id="Plane">
				<g>
					<g>
						<path fill="#FFFFFF" d="M1274.4,912.8c2.5,1.2,6.3,1.4,8.8,0.2l46.6-22.1c2.5-1.2,2.3-1.8-0.4-1.4l-70.5,11.2
							c-2.6,0.4-3,1.9-0.5,3.2L1274.4,912.8z"/>
					</g>
					<g>
						<path fill="#FFFFFF" d="M1296.4,941.1c1.6,2.3,4,2.3,5.4,0l31.5-46.6c1.6-2.3,0.9-3-1.6-1.8l-45,24.4
							c-2.5,1.2-3.2,4.2-1.6,6.5L1296.4,941.1z"/>
					</g>
					<g display="none">
						<path display="inline" fill="#FFFFFF" d="M1279.5,925c0-0.2-0.2-0.5-0.4-1.8l-0.4-3.3c-0.2-2.6,1.6-5.6,3.9-6.7l44.5-19.5
							l-42,22.1c-2.5,1.2-4.9,4.6-5.3,7.4C1279.7,924.4,1279.5,924.8,1279.5,925z"/>
						<path display="inline" fill="#F42534" d="M1321.7,896.1l-36.6,19.3c-2.5,1.4-4.9,4.7-5.4,7.6c0,0.5-0.2,0.9-0.2,1.1
							c0-0.2-0.2-0.7-0.2-1.1l-0.4-3.3c-0.2-2.6,1.4-5.4,3.9-6.5L1321.7,896.1 M1330,892.1c-0.2,0-0.7,0.2-1.9,0.7l-45.4,20
							c-2.5,1.1-4.4,4.2-4,7l0.4,3.3c0.2,1.4,0.4,2.1,0.5,2.1s0.5-0.7,0.7-2.1l0,0c0.4-2.6,2.8-6,5.1-7.2l42.9-22.7
							C1329.6,892.4,1330.1,892.1,1330,892.1L1330,892.1z"/>
					</g>
				</g>
			</g>
			<g id="Fade_1_">
				
					<linearGradient id="Fade_2_" gradientUnits="userSpaceOnUse" x1="2255.1831" y1="1552.8251" x2="2298.1907" y2="1483.2416" gradientTransform="matrix(1.7402 -0.248 -0.248 -1.7402 -2237.0371 4108.1724)">
					<stop  offset="6.060610e-002" style="stop-color:#FFFFFF"/>
					<stop  offset="0.1434" style="stop-color:#FFFFFF;stop-opacity:0.9012"/>
					<stop  offset="0.899" style="stop-color:#FFFFFF;stop-opacity:0"/>
				</linearGradient>
				<circle id="Fade" opacity="0.36" fill="url(#Fade_2_)" enable-background="new    " cx="1348.4" cy="901.8" r="71.9"/>
			</g>
		</g>
	</g>
</g>
<g id="Express">
	<g>
		<path fill="#F42534" d="M1456,915.3h-18.6l8.3-39.2h18.6l-0.7,3.3h-12.7l-3,14.1h9.1l-0.7,3.3h-9.1l-3.2,15.3h12.7L1456,915.3z"/>
		<polygon fill="#F42534" points="1489.6,884.2 1483.8,884.2 1476.4,894 1473.4,884.2 1467.2,884.2 1472.2,899.8 1460.7,915.3 
			1466.9,915.3 1473.9,905.4 1477.1,915.3 1482.7,915.3 1478.1,899.8 		"/>
		<path fill="#F42534" d="M1513.3,905.4c-0.7,3.2-1.6,5.6-2.6,7c-1.4,1.9-3.7,2.8-6.7,2.8h-7.4l0.7-3.3h4.9c1.6,0,2.8-0.7,3.7-2.1
			c0.5-0.9,1.1-2.3,1.4-4l2.1-9.7c0.9-3.9,1.1-6,0.9-6.7c-0.4-1.4-2.3-2.1-5.4-2.1c-0.7,0-1.8,0-3,0c-1.6,0-2.5,0-3,0l-8.8,41.1h-6
			l9.5-44.5h17.1c3,0,4.7,0.9,5.4,2.8c0.5,1.4,0.4,3.7-0.4,6.9L1513.3,905.4z"/>
		<path fill="#F42534" d="M1536.7,887.5h-3c-2.5,0-4,0.5-4.9,1.6c-0.5,0.7-1.2,2.5-1.8,5.3l-4.4,20.9h-6l4.6-21.8
			c1.4-6.3,5.4-9.3,12.1-9.3h4L1536.7,887.5z"/>
		<path fill="#F42534" d="M1561.3,893c-0.5,2.1-1.2,4-2.3,5.6c-1.4,2.1-3,3.3-4.9,3.3h-8.3l0.7-3.3h4.9c1.2,0,2.1-0.9,3-2.5
			c0.7-1.2,1.1-2.5,1.4-3.9c0.2-1.2,0.2-1.8,0.2-2.8c0-1.4-0.5-2.1-1.2-2.1h-5.8c-1.6,0-2.8,0.7-3.7,2.1c-0.5,0.9-1.1,2.3-1.4,4.2
			l-2.5,11.8c-0.5,2.3-0.5,3.9-0.4,4.6c0.4,1.2,1.8,1.8,3.9,1.8c-0.9,0,2.6,0,10.4,0l-0.7,3.3h-13.9c-3,0-4.9-0.9-5.4-2.8
			c-0.5-1.4-0.4-3.7,0.4-7l2.5-11.4c0.7-3.2,1.6-5.4,2.6-6.9c1.4-1.9,3.7-3,6.9-3h10.7c1.8,0,3,1.2,3.5,3.5
			C1561.6,889.3,1561.6,890.9,1561.3,893z"/>
		<path fill="#F42534" d="M1583.3,906.7c-0.4,1.9-1.1,3.9-2.1,5.4c-1.2,2.1-2.8,3.2-4.6,3.2h-17.4l0.7-3.3h14.4
			c0.9,0,1.8-0.7,2.6-1.9c0.5-0.9,0.9-1.9,1.2-3.2c0.2-1.2,0.4-2.1,0.2-3.2c-0.2-1.2-0.9-1.9-1.8-1.9h-9.3c-1.8,0-3-1.2-3.5-3.5
			c-0.4-1.8-0.4-3.7,0-5.8c0.5-2.1,1.2-4,2.5-5.4c1.4-1.9,3.2-2.8,5.1-2.8h13l-0.7,3.3h-10.9c-0.9,0-1.6,0.7-2.3,1.9
			c-0.5,0.9-0.9,1.9-1.1,3c-0.2,1.1-0.4,2.1-0.2,3c0.2,1.2,0.7,1.8,1.6,1.8h10c1.6,0,2.6,1.2,3,3.7
			C1583.8,902.6,1583.8,904.6,1583.3,906.7z"/>
		<path fill="#F42534" d="M1607.3,906.7c-0.4,1.9-1.1,3.9-2.1,5.4c-1.2,2.1-2.8,3.2-4.6,3.2h-17.4l0.7-3.3h14.4
			c0.9,0,1.8-0.7,2.6-1.9c0.5-0.9,0.9-1.9,1.2-3.2c0.2-1.2,0.4-2.1,0.2-3.2c-0.2-1.2-0.9-1.9-1.8-1.9h-9.3c-1.8,0-3-1.2-3.5-3.5
			c-0.4-1.8-0.4-3.7,0-5.8c0.5-2.1,1.2-4,2.5-5.4c1.4-1.9,3.2-2.8,5.1-2.8h13l-0.7,3.3h-10.9c-0.9,0-1.6,0.7-2.3,1.9
			c-0.5,0.9-0.9,1.9-1.1,3s-0.4,2.1-0.2,3c0.2,1.2,0.7,1.8,1.6,1.8h10c1.6,0,2.6,1.2,3,3.7C1607.9,902.6,1607.9,904.6,1607.3,906.7z
			"/>
	</g>
</g>
<g id="Ads">
	<path d="M1379.4,915.3h-4.6v-10h-9.8l-3.9,10h-5.8l16.3-39.2h7.9v39.2H1379.4z M1374.8,901.8V880l-8.6,21.8H1374.8z"/>
	<path d="M1405.2,915.3h-15.6c-3,0-4.7-1.1-5.4-3.3c-0.5-1.6-0.4-3.9,0.4-7.2l2.1-10.2c0.7-3.3,1.6-5.6,2.8-7.2
		c1.6-2.1,3.7-3.2,6.7-3.2h6.9l-0.7,3.3h-4.4c-1.6,0-2.8,0.7-3.9,2.3c-0.5,0.9-1.1,2.3-1.4,4.2l-1.8,7.9c-0.9,3.7-1.1,6.3-0.9,7.4
		c0.5,1.8,2.1,2.6,4.9,2.6c0.5,0,1.4,0,2.3,0c1.1,0,1.9,0,2.5,0l7.6-35.9h6L1405.2,915.3z"/>
	<path d="M1433.5,906.7c-0.4,1.9-1.1,3.9-2.1,5.4c-1.2,2.1-2.8,3.2-4.6,3.2h-15.6l0.7-3.3h12.5c0.9,0,1.8-0.7,2.6-1.9
		c0.5-0.9,0.9-1.9,1.2-3.2c0.2-1.2,0.4-2.1,0.2-3.2c-0.2-1.2-0.9-1.9-1.8-1.9h-9.3c-1.8,0-3-1.2-3.5-3.5c-0.4-1.8-0.4-3.7,0-5.8
		c0.5-2.1,1.2-4,2.5-5.4c1.4-1.9,3.2-2.8,5.1-2.8h13l-0.7,3.3h-10.9c-0.9,0-1.6,0.7-2.3,1.9c-0.5,0.9-0.9,1.9-1.1,3s-0.4,2.1-0.2,3
		c0.2,1.2,0.7,1.8,1.6,1.8h10c1.6,0,2.6,1.2,3,3.7C1434,902.6,1434,904.6,1433.5,906.7z"/>
</g>
<g id="Express_Fade">
	<g>
		<g>
			<g>
				<defs>
					<polygon id="SVGID_3_" points="1456,915.3 1437.4,915.3 1445.6,876.1 1464.3,876.1 1463.6,879.4 1450.9,879.4 1447.9,893.5 
						1457.1,893.5 1456.3,896.8 1447.2,896.8 1444,912.1 1456.7,912.1 					"/>
				</defs>
				<clipPath id="SVGID_4_">
					<use xlink:href="#SVGID_3_"  overflow="visible"/>
				</clipPath>
				
					<linearGradient id="SVGID_5_" gradientUnits="userSpaceOnUse" x1="542.95" y1="1285.0612" x2="542.95" y2="1255.2611" gradientTransform="matrix(1.7578 0 0 -1.7578 539.9999 3164.0625)">
					<stop  offset="0" style="stop-color:#FFFFFF"/>
					<stop  offset="1" style="stop-color:#FFFFFF;stop-opacity:0"/>
				</linearGradient>
				
					<rect x="1350.5" y="905.1" opacity="0.33" clip-path="url(#SVGID_4_)" fill="url(#SVGID_5_)" enable-background="new    " width="287.8" height="52.4"/>
			</g>
		</g>
		<g>
			<g>
				<defs>
					<polygon id="SVGID_6_" points="1489.6,884.2 1483.8,884.2 1476.4,894 1473.4,884.2 1467.2,884.2 1472.2,899.8 1460.7,915.3 
						1466.9,915.3 1473.9,905.4 1477.1,915.3 1482.7,915.3 1478.1,899.8 					"/>
				</defs>
				<clipPath id="SVGID_7_">
					<use xlink:href="#SVGID_6_"  overflow="visible"/>
				</clipPath>
				
					<linearGradient id="SVGID_8_" gradientUnits="userSpaceOnUse" x1="542.95" y1="1285.0612" x2="542.95" y2="1255.2611" gradientTransform="matrix(1.7578 0 0 -1.7578 539.9999 3164.0625)">
					<stop  offset="0" style="stop-color:#FFFFFF"/>
					<stop  offset="1" style="stop-color:#FFFFFF;stop-opacity:0"/>
				</linearGradient>
				
					<rect x="1350.5" y="905.1" opacity="0.33" clip-path="url(#SVGID_7_)" fill="url(#SVGID_8_)" enable-background="new    " width="287.8" height="52.4"/>
			</g>
		</g>
		<g>
			<g>
				<defs>
					<path id="SVGID_9_" d="M1513.3,905.4c-0.7,3.2-1.6,5.6-2.6,7c-1.4,1.9-3.7,2.8-6.7,2.8h-7.4l0.7-3.3h4.9c1.6,0,2.8-0.7,3.7-2.1
						c0.5-0.9,1.1-2.3,1.4-4l2.1-9.7c0.9-3.9,1.1-6,0.9-6.7c-0.4-1.4-2.3-2.1-5.4-2.1c-0.7,0-1.8,0-3,0c-1.6,0-2.5,0-3,0l-8.8,41.1
						h-6l9.5-44.5h17.1c3,0,4.7,0.9,5.4,2.8c0.5,1.4,0.4,3.7-0.4,6.9L1513.3,905.4z"/>
				</defs>
				<clipPath id="SVGID_10_">
					<use xlink:href="#SVGID_9_"  overflow="visible"/>
				</clipPath>
				
					<linearGradient id="SVGID_11_" gradientUnits="userSpaceOnUse" x1="542.95" y1="1285.0612" x2="542.95" y2="1255.2611" gradientTransform="matrix(1.7578 0 0 -1.7578 539.9999 3164.0625)">
					<stop  offset="0" style="stop-color:#FFFFFF"/>
					<stop  offset="1" style="stop-color:#FFFFFF;stop-opacity:0"/>
				</linearGradient>
				
					<rect x="1350.5" y="905.1" opacity="0.33" clip-path="url(#SVGID_10_)" fill="url(#SVGID_11_)" enable-background="new    " width="287.8" height="52.4"/>
			</g>
		</g>
		<g>
			<g>
				<defs>
					<path id="SVGID_12_" d="M1536.7,887.5h-3c-2.5,0-4,0.5-4.9,1.6c-0.5,0.7-1.2,2.5-1.8,5.3l-4.4,20.9h-6l4.6-21.8
						c1.4-6.3,5.4-9.3,12.1-9.3h4L1536.7,887.5z"/>
				</defs>
				<clipPath id="SVGID_13_">
					<use xlink:href="#SVGID_12_"  overflow="visible"/>
				</clipPath>
				
					<linearGradient id="SVGID_14_" gradientUnits="userSpaceOnUse" x1="542.95" y1="1285.0612" x2="542.95" y2="1255.2611" gradientTransform="matrix(1.7578 0 0 -1.7578 539.9999 3164.0625)">
					<stop  offset="0" style="stop-color:#FFFFFF"/>
					<stop  offset="1" style="stop-color:#FFFFFF;stop-opacity:0"/>
				</linearGradient>
				
					<rect x="1350.5" y="905.1" opacity="0.33" clip-path="url(#SVGID_13_)" fill="url(#SVGID_14_)" enable-background="new    " width="287.8" height="52.4"/>
			</g>
		</g>
		<g>
			<g>
				<defs>
					<path id="SVGID_15_" d="M1561.3,893c-0.5,2.1-1.2,4-2.3,5.6c-1.4,2.1-3,3.3-4.9,3.3h-8.3l0.7-3.3h4.9c1.2,0,2.1-0.9,3-2.5
						c0.7-1.2,1.1-2.5,1.4-3.9c0.2-1.2,0.2-1.8,0.2-2.8c0-1.4-0.5-2.1-1.2-2.1h-5.8c-1.6,0-2.8,0.7-3.7,2.1
						c-0.5,0.9-1.1,2.3-1.4,4.2l-2.5,11.8c-0.5,2.3-0.5,3.9-0.4,4.6c0.4,1.2,1.8,1.8,3.9,1.8c-0.9,0,2.6,0,10.4,0l-0.7,3.3h-13.9
						c-3,0-4.9-0.9-5.4-2.8c-0.5-1.4-0.4-3.7,0.4-7l2.5-11.4c0.7-3.2,1.6-5.4,2.6-6.9c1.4-1.9,3.7-3,6.9-3h10.7c1.8,0,3,1.2,3.5,3.5
						C1561.6,889.3,1561.6,890.9,1561.3,893z"/>
				</defs>
				<clipPath id="SVGID_16_">
					<use xlink:href="#SVGID_15_"  overflow="visible"/>
				</clipPath>
				
					<linearGradient id="SVGID_17_" gradientUnits="userSpaceOnUse" x1="542.95" y1="1285.0612" x2="542.95" y2="1255.2611" gradientTransform="matrix(1.7578 0 0 -1.7578 539.9999 3164.0625)">
					<stop  offset="0" style="stop-color:#FFFFFF"/>
					<stop  offset="1" style="stop-color:#FFFFFF;stop-opacity:0"/>
				</linearGradient>
				
					<rect x="1350.5" y="905.1" opacity="0.33" clip-path="url(#SVGID_16_)" fill="url(#SVGID_17_)" enable-background="new    " width="287.8" height="52.4"/>
			</g>
		</g>
		<g>
			<g>
				<defs>
					<path id="SVGID_18_" d="M1583.3,906.7c-0.4,1.9-1.1,3.9-2.1,5.4c-1.2,2.1-2.8,3.2-4.6,3.2h-17.4l0.7-3.3h14.4
						c0.9,0,1.8-0.7,2.6-1.9c0.5-0.9,0.9-1.9,1.2-3.2c0.2-1.2,0.4-2.1,0.2-3.2c-0.2-1.2-0.9-1.9-1.8-1.9h-9.3c-1.8,0-3-1.2-3.5-3.5
						c-0.4-1.8-0.4-3.7,0-5.8c0.5-2.1,1.2-4,2.5-5.4c1.4-1.9,3.2-2.8,5.1-2.8h13l-0.7,3.3h-10.9c-0.9,0-1.6,0.7-2.3,1.9
						c-0.5,0.9-0.9,1.9-1.1,3c-0.2,1.1-0.4,2.1-0.2,3c0.2,1.2,0.7,1.8,1.6,1.8h10c1.6,0,2.6,1.2,3,3.7
						C1583.8,902.6,1583.8,904.6,1583.3,906.7z"/>
				</defs>
				<clipPath id="SVGID_19_">
					<use xlink:href="#SVGID_18_"  overflow="visible"/>
				</clipPath>
				
					<linearGradient id="SVGID_20_" gradientUnits="userSpaceOnUse" x1="542.95" y1="1285.0612" x2="542.95" y2="1255.2611" gradientTransform="matrix(1.7578 0 0 -1.7578 539.9999 3164.0625)">
					<stop  offset="0" style="stop-color:#FFFFFF"/>
					<stop  offset="1" style="stop-color:#FFFFFF;stop-opacity:0"/>
				</linearGradient>
				
					<rect x="1350.5" y="905.1" opacity="0.33" clip-path="url(#SVGID_19_)" fill="url(#SVGID_20_)" enable-background="new    " width="287.8" height="52.4"/>
			</g>
		</g>
		<g>
			<g>
				<defs>
					<path id="SVGID_21_" d="M1607.3,906.7c-0.4,1.9-1.1,3.9-2.1,5.4c-1.2,2.1-2.8,3.2-4.6,3.2h-17.4l0.7-3.3h14.4
						c0.9,0,1.8-0.7,2.6-1.9c0.5-0.9,0.9-1.9,1.2-3.2c0.2-1.2,0.4-2.1,0.2-3.2c-0.2-1.2-0.9-1.9-1.8-1.9h-9.3c-1.8,0-3-1.2-3.5-3.5
						c-0.4-1.8-0.4-3.7,0-5.8c0.5-2.1,1.2-4,2.5-5.4c1.4-1.9,3.2-2.8,5.1-2.8h13l-0.7,3.3h-10.9c-0.9,0-1.6,0.7-2.3,1.9
						c-0.5,0.9-0.9,1.9-1.1,3s-0.4,2.1-0.2,3c0.2,1.2,0.7,1.8,1.6,1.8h10c1.6,0,2.6,1.2,3,3.7
						C1607.9,902.6,1607.9,904.6,1607.3,906.7z"/>
				</defs>
				<clipPath id="SVGID_22_">
					<use xlink:href="#SVGID_21_"  overflow="visible"/>
				</clipPath>
				
					<linearGradient id="SVGID_23_" gradientUnits="userSpaceOnUse" x1="542.95" y1="1285.0612" x2="542.95" y2="1255.2611" gradientTransform="matrix(1.7578 0 0 -1.7578 539.9999 3164.0625)">
					<stop  offset="0" style="stop-color:#FFFFFF"/>
					<stop  offset="1" style="stop-color:#FFFFFF;stop-opacity:0"/>
				</linearGradient>
				
					<rect x="1350.5" y="905.1" opacity="0.33" clip-path="url(#SVGID_22_)" fill="url(#SVGID_23_)" enable-background="new    " width="287.8" height="52.4"/>
			</g>
		</g>
	</g>
</g>
<g id="Ads_Fade">
	<g>
		<g>
			<defs>
				<path id="SVGID_24_" d="M1379.4,915.3h-4.6v-10h-9.8l-3.9,10h-5.8l16.3-39.2h7.9v39.2H1379.4z M1374.8,901.8V880l-8.6,21.8
					H1374.8z"/>
			</defs>
			<clipPath id="SVGID_25_">
				<use xlink:href="#SVGID_24_"  overflow="visible"/>
			</clipPath>
			
				<linearGradient id="SVGID_26_" gradientUnits="userSpaceOnUse" x1="542.95" y1="1285.0612" x2="542.95" y2="1255.2611" gradientTransform="matrix(1.7578 0 0 -1.7578 539.9999 3164.0625)">
				<stop  offset="0" style="stop-color:#FFFFFF"/>
				<stop  offset="1" style="stop-color:#FFFFFF;stop-opacity:0"/>
			</linearGradient>
			
				<rect x="1350.5" y="905.1" opacity="0.33" clip-path="url(#SVGID_25_)" fill="url(#SVGID_26_)" enable-background="new    " width="287.8" height="52.4"/>
		</g>
	</g>
	<g>
		<g>
			<defs>
				<path id="SVGID_27_" d="M1405.2,915.3h-15.6c-3,0-4.7-1.1-5.4-3.3c-0.5-1.6-0.4-3.9,0.4-7.2l2.1-10.2c0.7-3.3,1.6-5.6,2.8-7.2
					c1.6-2.1,3.7-3.2,6.7-3.2h6.9l-0.7,3.3h-4.4c-1.6,0-2.8,0.7-3.9,2.3c-0.5,0.9-1.1,2.3-1.4,4.2l-1.8,7.9
					c-0.9,3.7-1.1,6.3-0.9,7.4c0.5,1.8,2.1,2.6,4.9,2.6c0.5,0,1.4,0,2.3,0c1.1,0,1.9,0,2.5,0l7.6-35.9h6L1405.2,915.3z"/>
			</defs>
			<clipPath id="SVGID_28_">
				<use xlink:href="#SVGID_27_"  overflow="visible"/>
			</clipPath>
			
				<linearGradient id="SVGID_29_" gradientUnits="userSpaceOnUse" x1="542.95" y1="1285.0612" x2="542.95" y2="1255.2611" gradientTransform="matrix(1.7578 0 0 -1.7578 539.9999 3164.0625)">
				<stop  offset="0" style="stop-color:#FFFFFF"/>
				<stop  offset="1" style="stop-color:#FFFFFF;stop-opacity:0"/>
			</linearGradient>
			
				<rect x="1350.5" y="905.1" opacity="0.33" clip-path="url(#SVGID_28_)" fill="url(#SVGID_29_)" enable-background="new    " width="287.8" height="52.4"/>
		</g>
	</g>
	<g>
		<g>
			<defs>
				<path id="SVGID_30_" d="M1433.5,906.7c-0.4,1.9-1.1,3.9-2.1,5.4c-1.2,2.1-2.8,3.2-4.6,3.2h-15.6l0.7-3.3h12.5
					c0.9,0,1.8-0.7,2.6-1.9c0.5-0.9,0.9-1.9,1.2-3.2c0.2-1.2,0.4-2.1,0.2-3.2c-0.2-1.2-0.9-1.9-1.8-1.9h-9.3c-1.8,0-3-1.2-3.5-3.5
					c-0.4-1.8-0.4-3.7,0-5.8c0.5-2.1,1.2-4,2.5-5.4c1.4-1.9,3.2-2.8,5.1-2.8h13l-0.7,3.3h-10.9c-0.9,0-1.6,0.7-2.3,1.9
					c-0.5,0.9-0.9,1.9-1.1,3s-0.4,2.1-0.2,3c0.2,1.2,0.7,1.8,1.6,1.8h10c1.6,0,2.6,1.2,3,3.7C1434,902.6,1434,904.6,1433.5,906.7z"
					/>
			</defs>
			<clipPath id="SVGID_31_">
				<use xlink:href="#SVGID_30_"  overflow="visible"/>
			</clipPath>
			
				<linearGradient id="SVGID_32_" gradientUnits="userSpaceOnUse" x1="542.95" y1="1285.0612" x2="542.95" y2="1255.2611" gradientTransform="matrix(1.7578 0 0 -1.7578 539.9999 3164.0625)">
				<stop  offset="0" style="stop-color:#FFFFFF"/>
				<stop  offset="1" style="stop-color:#FFFFFF;stop-opacity:0"/>
			</linearGradient>
			
				<rect x="1350.5" y="905.1" opacity="0.33" clip-path="url(#SVGID_31_)" fill="url(#SVGID_32_)" enable-background="new    " width="287.8" height="52.4"/>
		</g>
	</g>
</g>
<g>
	<g>
		<path fill="#BABCBE" d="M1367.1,937.4h-3.9l-0.7,3.3h4.4l-0.2,1.1h-5.8l1.9-9.3h5.4l-0.2,1.1h-4.2l-0.7,3h3.9L1367.1,937.4z"/>
		<path fill="#BABCBE" d="M1370.6,935.2l0.7,1.4c0.2,0.4,0.4,0.7,0.5,1.1l0,0c0.4-0.4,0.7-0.7,0.9-1.1l1.4-1.4h1.4l-3.2,3.2l1.8,3.5
			h-1.6l-0.7-1.6c-0.2-0.4-0.4-0.7-0.5-1.2l0,0c-0.4,0.4-0.7,0.7-1.1,1.2l-1.4,1.6h-1.4l3.3-3.3l-1.8-3.3L1370.6,935.2L1370.6,935.2
			z"/>
		<path fill="#BABCBE" d="M1376.9,937.3c0.2-0.9,0.4-1.6,0.4-2.1h1.2l-0.2,1.1l0,0c0.7-0.9,1.8-1.2,2.8-1.2c1.8,0,2.8,1.4,2.3,3.3
			c-0.5,2.5-2.3,3.5-4,3.5c-0.9,0-1.8-0.4-2.1-1.1l0,0l-0.7,3.7h-1.2L1376.9,937.3z M1377.8,939.2c0,0.2,0,0.4,0,0.5
			c0,0.9,0.7,1.4,1.8,1.4c1.4,0,2.5-1.1,2.8-2.6c0.4-1.4-0.2-2.5-1.6-2.5c-0.9,0-1.9,0.5-2.3,1.6c0,0.2-0.2,0.4-0.2,0.5
			L1377.8,939.2z"/>
		<path fill="#BABCBE" d="M1385.9,937.3c0.2-0.7,0.4-1.4,0.4-2.1h1.2l-0.2,1.2l0,0c0.5-0.9,1.4-1.4,2.3-1.4c0.2,0,0.2,0,0.4,0
			l-0.2,1.1c-0.2,0-0.2,0-0.5,0c-0.9,0-1.8,0.7-2.1,1.6c0,0.2-0.2,0.4-0.2,0.5l-0.7,3.5h-1.2L1385.9,937.3z"/>
		<path fill="#BABCBE" d="M1391.7,938.7c-0.4,1.6,0.7,2.3,1.9,2.3c0.9,0,1.6-0.2,2.1-0.4v0.9c-0.5,0.2-1.4,0.4-2.5,0.4
			c-2.3,0-3.3-1.4-2.8-3.3c0.4-1.9,2.1-3.5,4.2-3.5c2.5,0,2.6,1.9,2.3,3.2c0,0.2-0.2,0.5-0.2,0.5L1391.7,938.7L1391.7,938.7z
			 M1395.7,937.8c0.2-0.7,0-1.9-1.4-1.9c-1.4,0-2.1,1.1-2.5,1.9H1395.7z"/>
		<path fill="#BABCBE" d="M1398.2,940.6c0.4,0.2,1.1,0.5,1.6,0.5c0.9,0,1.6-0.4,1.6-1.1c0.2-0.5-0.2-0.9-1.1-1.2
			c-1.2-0.4-1.8-1.1-1.6-1.9c0.2-1.1,1.4-1.9,3-1.9c0.7,0,1.4,0.2,1.8,0.4l-0.5,0.9c-0.2-0.2-0.7-0.4-1.4-0.4s-1.2,0.4-1.4,0.9
			s0.4,0.9,1.2,1.1c1.2,0.5,1.8,1.1,1.4,1.9c-0.2,1.2-1.4,1.9-3.2,1.9c-0.9,0-1.6-0.2-1.9-0.5L1398.2,940.6z"/>
		<path fill="#BABCBE" d="M1404.5,940.6c0.4,0.2,1.1,0.5,1.6,0.5c0.9,0,1.6-0.4,1.6-1.1c0.2-0.5-0.2-0.9-1.1-1.2
			c-1.2-0.4-1.8-1.1-1.6-1.9c0.2-1.1,1.4-1.9,3-1.9c0.7,0,1.4,0.2,1.8,0.4l-0.5,0.9c-0.2-0.2-0.7-0.4-1.4-0.4
			c-0.7,0-1.2,0.4-1.4,0.9c-0.2,0.5,0.4,0.9,1.2,1.1c1.2,0.5,1.8,1.1,1.4,1.9c-0.2,1.2-1.4,1.9-3.2,1.9c-0.9,0-1.6-0.2-1.9-0.5
			L1404.5,940.6z"/>
		<path fill="#BABCBE" d="M1416.6,938.8l-1.8,3h-1.2l5.4-9.3h1.6l1.6,9.3h-1.6l-0.5-3H1416.6z M1420.1,938l-0.4-2.6
			c-0.2-0.5-0.2-1.2-0.2-1.8l0,0c-0.4,0.5-0.5,1.1-0.9,1.8l-1.6,2.6H1420.1z"/>
		<path fill="#BABCBE" d="M1432.3,932l-1.8,8.1c-0.2,0.5-0.2,1.2-0.4,1.8h-1.2l0.2-1.2l0,0c-0.5,0.7-1.6,1.2-2.8,1.2
			c-1.8,0-2.8-1.4-2.5-3.3c0.5-2.3,2.3-3.5,4-3.5c1.1,0,1.8,0.5,1.9,1.1l0,0l0.9-4L1432.3,932L1432.3,932z M1429.6,938
			c0-0.2,0-0.4,0-0.5c0-0.7-0.7-1.4-1.6-1.4c-1.4,0-2.5,1.1-2.8,2.6c-0.4,1.4,0.2,2.5,1.6,2.5c0.9,0,1.8-0.5,2.3-1.4
			c0-0.2,0.2-0.4,0.2-0.5L1429.6,938z"/>
		<path fill="#BABCBE" d="M1434.7,935.2l0.7,3.7c0.2,0.5,0.2,1.2,0.2,1.8l0,0c0.4-0.5,0.5-1.1,1.1-1.8l2.3-3.7h1.4l-4.2,6.7h-1.2
			l-1.4-6.7H1434.7z"/>
		<path fill="#BABCBE" d="M1441.8,938.7c-0.4,1.6,0.7,2.3,1.9,2.3c0.9,0,1.6-0.2,2.1-0.4v0.9c-0.5,0.2-1.4,0.4-2.5,0.4
			c-2.3,0-3.3-1.4-2.8-3.3c0.4-1.9,2.1-3.5,4.2-3.5c2.5,0,2.6,1.9,2.3,3.2c0,0.2-0.2,0.5-0.2,0.5L1441.8,938.7L1441.8,938.7z
			 M1445.8,937.8c0.2-0.7,0-1.9-1.4-1.9c-1.4,0-2.1,1.1-2.5,1.9H1445.8z"/>
		<path fill="#BABCBE" d="M1449.3,937.3c0.2-0.7,0.4-1.4,0.4-2.1h1.2l-0.2,1.2l0,0c0.5-0.9,1.4-1.4,2.3-1.4c0.2,0,0.2,0,0.4,0
			l-0.2,1.1c-0.2,0-0.2,0-0.5,0c-0.9,0-1.8,0.7-2.1,1.6c0,0.2-0.2,0.4-0.2,0.5l-0.7,3.5h-1.2L1449.3,937.3z"/>
		<path fill="#BABCBE" d="M1457.1,933.2l-0.4,1.9h1.9l-0.2,0.9h-1.9l-0.7,3.5c-0.2,0.9,0,1.2,0.7,1.2c0.4,0,0.5,0,0.7,0l-0.2,0.9
			c-0.4,0.2-0.7,0.2-1.2,0.2c-0.7,0-1.1-0.2-1.4-0.5c-0.4-0.4-0.4-0.9-0.2-1.8l0.7-3.7h-1.1l0.2-0.9h1.1l0.4-1.6L1457.1,933.2z"/>
		<path fill="#BABCBE" d="M1459,941.8l1.4-6.7h1.4l-1.4,6.7H1459z M1462.1,933.2c0,0.4-0.5,0.7-1.1,0.7c-0.5,0-0.7-0.4-0.7-0.7
			c0.2-0.4,0.5-0.7,1.1-0.7S1462.3,932.9,1462.1,933.2z"/>
		<path fill="#BABCBE" d="M1462.9,940.6c0.4,0.2,1.1,0.5,1.6,0.5c0.9,0,1.6-0.4,1.6-1.1c0.2-0.5-0.2-0.9-1.1-1.2
			c-1.2-0.4-1.8-1.1-1.6-1.9c0.2-1.1,1.4-1.9,3-1.9c0.7,0,1.4,0.2,1.8,0.4l-0.5,0.9c-0.2-0.2-0.7-0.4-1.4-0.4
			c-0.7,0-1.2,0.4-1.4,0.9c-0.2,0.5,0.4,0.9,1.2,1.1c1.2,0.5,1.8,1.1,1.4,1.9c-0.2,1.2-1.4,1.9-3.2,1.9c-0.9,0-1.6-0.2-1.9-0.5
			L1462.9,940.6z"/>
		<path fill="#BABCBE" d="M1469.2,941.8l1.4-6.7h1.4l-1.4,6.7H1469.2z M1472.3,933.2c0,0.4-0.5,0.7-1.1,0.7s-0.7-0.4-0.7-0.7
			c0.2-0.4,0.5-0.7,1.1-0.7C1472.2,932.5,1472.5,932.9,1472.3,933.2z"/>
		<path fill="#BABCBE" d="M1474.1,936.9c0.2-0.7,0.2-1.2,0.4-1.8h1.2l-0.2,1.1l0,0c0.5-0.7,1.4-1.2,2.6-1.2c1.1,0,2.5,0.5,1.9,2.8
			l-0.9,4h-1.4l0.9-3.9c0.2-1.1,0-1.9-1.2-1.9c-0.9,0-1.8,0.5-2.1,1.2c-0.2,0.2-0.2,0.4-0.2,0.5l-0.9,4h-1.4L1474.1,936.9z"/>
		<path fill="#BABCBE" d="M1489.4,935.2c-0.2,0.5-0.4,1.1-0.5,1.8l-0.9,3.9c-0.4,1.6-0.9,2.5-1.8,3s-1.9,0.9-2.8,0.9
			s-1.8-0.2-2.3-0.5l0.5-0.9c0.4,0.4,1.1,0.5,2.1,0.5c1.4,0,2.5-0.7,2.8-2.3l0.2-0.7l0,0c-0.5,0.7-1.4,1.1-2.6,1.1
			c-1.8,0-2.8-1.4-2.5-3.2c0.5-2.3,2.3-3.5,4-3.5c1.2,0,1.8,0.5,2.1,1.2l0,0l0.4-1.1h1.2V935.2z M1487.5,937.8c0-0.2,0-0.4,0-0.5
			c-0.2-0.7-0.7-1.2-1.6-1.2c-1.2,0-2.5,1.1-2.6,2.5c-0.4,1.2,0.2,2.5,1.6,2.5c0.9,0,1.6-0.5,2.1-1.2c0.2-0.2,0.2-0.5,0.2-0.7
			L1487.5,937.8z"/>
		<path fill="#BABCBE" d="M1489.2,943.6c0.5-0.9,1.2-2.3,1.6-3.3l1.6-0.2c-0.5,1.2-1.6,2.6-2.1,3.3L1489.2,943.6z"/>
		<path fill="#BABCBE" d="M1499.6,932.5h5.4l-0.2,1.1h-4.2l-0.7,3h3.9l-0.2,1.1h-3.9l-0.9,4.2h-1.2L1499.6,932.5z"/>
		<path fill="#BABCBE" d="M1509.3,941.8V941l0,0c-0.5,0.5-1.4,1.1-2.5,1.1c-1.4,0-2.1-0.9-1.8-1.9c0.4-1.6,2.1-2.5,4.9-2.5v-0.2
			c0.2-0.5,0.2-1.6-1.4-1.6c-0.7,0-1.4,0.2-1.9,0.5l-0.2-0.9c0.7-0.4,1.6-0.5,2.5-0.5c2.3,0,2.5,1.4,2.1,2.6l-0.5,2.5
			c-0.2,0.5-0.2,1.1-0.2,1.6h-1.1V941.8z M1509.8,938.5c-1.4,0-3.2,0.2-3.3,1.6c-0.2,0.7,0.4,1.2,1.1,1.2c0.9,0,1.6-0.5,1.9-1.1
			c0-0.2,0.2-0.2,0.2-0.4L1509.8,938.5z"/>
		<path fill="#BABCBE" d="M1512.9,940.6c0.4,0.2,1.1,0.5,1.6,0.5c0.9,0,1.6-0.4,1.6-1.1c0.2-0.5-0.2-0.9-1.1-1.2
			c-1.2-0.4-1.8-1.1-1.6-1.9c0.2-1.1,1.4-1.9,3-1.9c0.7,0,1.4,0.2,1.8,0.4l-0.5,0.9c-0.2-0.2-0.7-0.4-1.4-0.4
			c-0.7,0-1.2,0.4-1.4,0.9c-0.2,0.5,0.4,0.9,1.2,1.1c1.2,0.5,1.8,1.1,1.4,1.9c-0.2,1.2-1.4,1.9-3.2,1.9c-0.9,0-1.6-0.2-1.9-0.5
			L1512.9,940.6z"/>
		<path fill="#BABCBE" d="M1522.6,933.2l-0.4,1.9h1.9l-0.2,0.9h-1.9l-0.7,3.5c-0.2,0.9,0,1.2,0.7,1.2c0.4,0,0.5,0,0.7,0l-0.2,0.9
			c-0.4,0.2-0.7,0.2-1.2,0.2c-0.7,0-1.1-0.2-1.4-0.5c-0.4-0.4-0.4-0.9-0.2-1.8l0.7-3.7h-1.1l0.2-0.9h1.1l0.4-1.6L1522.6,933.2z"/>
		<path fill="#BABCBE" d="M1530.2,932.7c0.7-0.2,1.6-0.2,2.6-0.2c1.4,0,2.3,0.2,2.8,0.7c0.4,0.4,0.5,1.1,0.4,1.8
			c-0.2,1.2-1.2,2.1-2.5,2.3l0,0c0.7,0.2,1.1,0.9,1.1,1.9c0,1.2,0.2,2.1,0.2,2.5h-1.4c-0.2-0.2-0.2-1.1-0.2-2.3s-0.5-1.8-1.6-1.8
			h-1.2l-0.9,4h-1.2L1530.2,932.7z M1530.5,936.9h1.4c1.4,0,2.5-0.7,2.6-1.8c0.2-1.2-0.5-1.8-1.9-1.8c-0.7,0-1.1,0-1.4,0.2
			L1530.5,936.9z"/>
		<path fill="#BABCBE" d="M1537.9,938.7c-0.4,1.6,0.7,2.3,1.9,2.3c0.9,0,1.6-0.2,2.1-0.4v0.9c-0.5,0.2-1.4,0.4-2.5,0.4
			c-2.3,0-3.3-1.4-2.8-3.3c0.4-1.9,2.1-3.5,4.2-3.5c2.5,0,2.6,1.9,2.3,3.2c0,0.2-0.2,0.5-0.2,0.5L1537.9,938.7L1537.9,938.7z
			 M1542.1,937.8c0.2-0.7,0-1.9-1.4-1.9s-2.1,1.1-2.5,1.9H1542.1z"/>
		<path fill="#BABCBE" d="M1548.5,941.8V941l0,0c-0.5,0.5-1.4,1.1-2.5,1.1c-1.4,0-2.1-0.9-1.8-1.9c0.4-1.6,2.1-2.5,4.9-2.5v-0.2
			c0.2-0.5,0.2-1.6-1.4-1.6c-0.7,0-1.4,0.2-1.9,0.5l-0.2-0.9c0.7-0.4,1.6-0.5,2.5-0.5c2.3,0,2.5,1.4,2.1,2.6l-0.5,2.5
			c-0.2,0.5-0.2,1.1-0.2,1.6h-1.1V941.8z M1549,938.5c-1.4,0-3.2,0.2-3.3,1.6c-0.2,0.7,0.4,1.2,1.1,1.2c0.9,0,1.6-0.5,1.9-1.1
			c0-0.2,0.2-0.2,0.2-0.4L1549,938.5z"/>
		<path fill="#BABCBE" d="M1557.4,941.7c-0.4,0.2-1.2,0.4-2.1,0.4c-2.3,0-3.3-1.4-3-3.3c0.4-2.1,2.3-3.5,4.7-3.5
			c0.7,0,1.4,0.2,1.8,0.4l-0.5,0.9c-0.4-0.2-0.7-0.4-1.4-0.4c-1.8,0-2.8,1.1-3.2,2.5c-0.4,1.6,0.5,2.5,1.9,2.5
			c0.7,0,1.2-0.2,1.8-0.4V941.7z"/>
		<path fill="#BABCBE" d="M1562.7,933.2l-0.4,1.9h1.9l-0.2,0.9h-1.9l-0.7,3.5c-0.2,0.9,0,1.2,0.7,1.2c0.4,0,0.5,0,0.7,0l-0.2,0.9
			c-0.4,0.2-0.7,0.2-1.2,0.2c-0.7,0-1.1-0.2-1.4-0.5c-0.4-0.4-0.4-0.9-0.2-1.8l0.7-3.7h-1.1l0.2-0.9h1.1l0.4-1.6L1562.7,933.2z"/>
		<path fill="#BABCBE" d="M1564.6,941.8l1.4-6.7h1.4l-1.4,6.7H1564.6z M1567.8,933.2c0,0.4-0.5,0.7-1.1,0.7s-0.7-0.4-0.7-0.7
			c0.2-0.4,0.5-0.7,1.1-0.7C1567.8,932.5,1568,932.9,1567.8,933.2z"/>
		<path fill="#BABCBE" d="M1575.7,938.5c-0.5,2.5-2.6,3.5-4.4,3.5c-1.9,0-3.2-1.4-2.8-3.3c0.5-2.3,2.3-3.5,4.4-3.5
			C1575.2,935,1576.2,936.4,1575.7,938.5z M1569.9,938.5c-0.4,1.4,0.4,2.6,1.8,2.6c1.2,0,2.5-1.1,2.8-2.6c0.2-1.1,0-2.6-1.6-2.6
			C1571.1,935.9,1570.3,937.3,1569.9,938.5z"/>
		<path fill="#BABCBE" d="M1578.2,936.9c0.2-0.7,0.2-1.2,0.4-1.8h1.2l-0.2,1.1l0,0c0.5-0.7,1.4-1.2,2.6-1.2c1.1,0,2.5,0.5,1.9,2.8
			l-0.9,4h-1.4l0.9-3.9c0.2-1.1,0-1.9-1.2-1.9c-0.9,0-1.8,0.5-2.1,1.2c-0.2,0.2-0.2,0.4-0.2,0.5l-0.9,4h-1.2L1578.2,936.9z"/>
		<path fill="#BABCBE" d="M1585.9,940.6c0.4,0.2,1.1,0.5,1.6,0.5c0.9,0,1.6-0.4,1.6-1.1c0.2-0.5-0.2-0.9-1.1-1.2
			c-1.2-0.4-1.8-1.1-1.6-1.9c0.2-1.1,1.4-1.9,3-1.9c0.7,0,1.4,0.2,1.8,0.4l-0.5,0.9c-0.2-0.2-0.7-0.4-1.4-0.4
			c-0.7,0-1.2,0.4-1.4,0.9c-0.2,0.5,0.4,0.9,1.2,1.1c1.2,0.5,1.8,1.1,1.4,1.9c-0.2,1.2-1.4,1.9-3.2,1.9c-0.9,0-1.6-0.2-1.9-0.5
			L1585.9,940.6z"/>
		<path fill="#BABCBE" d="M1592.1,941.1c0.2-0.5,0.5-0.9,1.1-0.9s0.9,0.4,0.7,0.9c-0.2,0.5-0.5,0.9-1.1,0.9
			C1592.2,942,1591.9,941.7,1592.1,941.1z"/>
	</g>
</g>
<path fill="#F42534" d="M1615.4,881.5c-1.9,0-3.5-1.6-3.5-3.5c0-1.9,1.6-3.5,3.5-3.5c1.9,0,3.5,1.6,3.5,3.5
	C1618.9,880,1617.4,881.5,1615.4,881.5z M1615.4,875c-1.6,0-3,1.4-3,3s1.4,3,3,3c1.6,0,3-1.4,3-3
	C1618.4,876.3,1617.2,875,1615.4,875z M1616.1,879.8l-0.5-1.6h-0.9v1.6h-0.7v-3.7h1.2c0.9,0,1.6,0.2,1.6,1.2c0,0.5-0.2,0.7-0.7,0.9
	l0.7,1.6H1616.1z M1615.6,876.6h-0.7v1.1h0.9c0.4,0,0.5-0.2,0.5-0.5C1616.1,876.8,1616,876.6,1615.6,876.6z"/>
</svg>
