<?xml version="1.0" encoding="utf-8"?>
<!-- Generator: Adobe Illustrator 18.0.0, SVG Export Plug-In . SVG Version: 6.00 Build 0)  -->
<!DOCTYPE svg PUBLIC "-//W3C//DTD SVG 1.1//EN" "http://www.w3.org/Graphics/SVG/1.1/DTD/svg11.dtd">
<svg version="1.1" id="Layer_1" xmlns="http://www.w3.org/2000/svg" xmlns:xlink="http://www.w3.org/1999/xlink" x="0px" y="0px"
	 viewBox="0 0 1024 1024" enable-background="new 0 0 1024 1024" xml:space="preserve">
<g>
	<path fill="#333333" d="M786.4,550.2c-1.8,2.2-4.8,3.7-7.8,4.1c-0.4,0-0.7,0-1.1,0c-3,0-5.6-0.7-7.8-2.6L512,336.9L254.4,551.7
		c-2.6,1.9-5.6,3-8.9,2.6c-3-0.4-6-1.9-7.8-4.1l-23.1-27.5c-4.1-4.8-3.3-12.7,1.5-16.8l267.7-223c15.6-13,41-13,56.6,0l90.9,76
		v-72.6c0-6.7,5.2-11.9,11.9-11.9h71.5c6.7,0,11.9,5.2,11.9,11.9v151.9l81.5,67.8c4.8,4.1,5.6,11.9,1.5,16.8L786.4,550.2z
		 M726.5,727.1c0,13-10.8,23.8-23.8,23.8h-143v-143h-95.3v143h-143c-13,0-23.8-10.8-23.8-23.8V548.3c0-0.7,0.4-1.5,0.4-2.2
		l214-176.5l214.1,176.5c0.4,0.7,0.4,1.5,0.4,2.2V727.1z"/>
</g>
</svg>
