<?xml version="1.0" encoding="utf-8"?>
<!-- Generator: Adobe Illustrator 18.0.0, SVG Export Plug-In . SVG Version: 6.00 Build 0)  -->
<!DOCTYPE svg PUBLIC "-//W3C//DTD SVG 1.1//EN" "http://www.w3.org/Graphics/SVG/1.1/DTD/svg11.dtd">
<svg version="1.1" id="Layer_1" xmlns="http://www.w3.org/2000/svg" xmlns:xlink="http://www.w3.org/1999/xlink" x="0px" y="0px"
	 viewBox="348.6 224.6 493.5 392.8" enable-background="new 348.6 224.6 493.5 392.8" xml:space="preserve">
<g>
	<path fill="#333333" d="M820.9,452.4c-1.5,1.8-3.9,3-6.4,3.4c-0.3,0-0.6,0-0.9,0c-2.5,0-4.6-0.6-6.4-2.1L595.3,277L383.5,453.6
		c-2.1,1.6-4.6,2.5-7.3,2.1c-2.5-0.3-4.9-1.6-6.4-3.4l-19-22.6c-3.4-3.9-2.7-10.4,1.2-13.8l220.1-183.3c12.8-10.7,33.7-10.7,46.5,0
		l74.7,62.5v-59.7c0-5.5,4.3-9.8,9.8-9.8h58.8c5.5,0,9.8,4.3,9.8,9.8v124.9l67,55.7c3.9,3.4,4.6,9.8,1.2,13.8L820.9,452.4z
		 M771.6,597.8c0,10.7-8.9,19.6-19.6,19.6H634.5V499.8h-78.4v117.6H438.6c-10.7,0-19.6-8.9-19.6-19.6v-147c0-0.6,0.3-1.2,0.3-1.8
		l175.9-145.1l176,145.1c0.3,0.6,0.3,1.2,0.3,1.8V597.8z"/>
</g>
</svg>
