<?xml version="1.0" encoding="utf-8"?>
<!-- Generator: Adobe Illustrator 18.0.0, SVG Export Plug-In . SVG Version: 6.00 Build 0)  -->
<!DOCTYPE svg PUBLIC "-//W3C//DTD SVG 1.1//EN" "http://www.w3.org/Graphics/SVG/1.1/DTD/svg11.dtd">
<svg version="1.1" id="Layer_1" xmlns="http://www.w3.org/2000/svg" xmlns:xlink="http://www.w3.org/1999/xlink" x="0px" y="0px"
	 viewBox="0 0 1024 1024" enable-background="new 0 0 1024 1024" xml:space="preserve">
<g>
	<path fill="#333333" d="M797.9,345.2c0,13-10.8,23.8-23.8,23.8H249.9c-13,0-23.8-10.8-23.8-23.8v-47.7c0-13,10.8-23.8,23.8-23.8
		h524.2c13,0,23.8,10.8,23.8,23.8L797.9,345.2L797.9,345.2z M797.9,535.8c0,13-10.8,23.8-23.8,23.8H249.9c-13,0-23.8-10.8-23.8-23.8
		v-47.7c0-13,10.8-23.8,23.8-23.8h524.2c13,0,23.8,10.8,23.8,23.8L797.9,535.8L797.9,535.8z M797.9,726.5c0,13-10.8,23.8-23.8,23.8
		H249.9c-13,0-23.8-10.8-23.8-23.8v-47.7c0-13,10.8-23.8,23.8-23.8h524.2c13,0,23.8,10.8,23.8,23.8L797.9,726.5L797.9,726.5z"/>
</g>
</svg>
