<?xml version="1.0" encoding="utf-8"?>
<!-- Generator: Adobe Illustrator 18.0.0, SVG Export Plug-In . SVG Version: 6.00 Build 0)  -->
<!DOCTYPE svg PUBLIC "-//W3C//DTD SVG 1.1//EN" "http://www.w3.org/Graphics/SVG/1.1/DTD/svg11.dtd">
<svg version="1.1" id="Layer_1" xmlns="http://www.w3.org/2000/svg" xmlns:xlink="http://www.w3.org/1999/xlink" x="0px" y="0px"
	 viewBox="360.2 225 470.1 391.8" enable-background="new 360.2 225 470.1 391.8" xml:space="preserve">
<g>
	<path fill="#333333" d="M830.3,283.8c0,10.7-8.9,19.6-19.6,19.6h-431c-10.7,0-19.6-8.9-19.6-19.6v-39.2c0-10.7,8.9-19.6,19.6-19.6
		h431c10.7,0,19.6,8.9,19.6,19.6L830.3,283.8L830.3,283.8z M830.3,440.5c0,10.7-8.9,19.6-19.6,19.6h-431c-10.7,0-19.6-8.9-19.6-19.6
		v-39.2c0-10.7,8.9-19.6,19.6-19.6h431c10.7,0,19.6,8.9,19.6,19.6L830.3,440.5L830.3,440.5z M830.3,597.3c0,10.7-8.9,19.6-19.6,19.6
		h-431c-10.7,0-19.6-8.9-19.6-19.6v-39.2c0-10.7,8.9-19.6,19.6-19.6h431c10.7,0,19.6,8.9,19.6,19.6L830.3,597.3L830.3,597.3z"/>
</g>
</svg>
